<svg width="238" height="151" viewBox="0 0 238 151" fill="none" xmlns="http://www.w3.org/2000/svg">
<path d="M51.5 150.166C40.7992 150.166 31.6847 147.254 24.1562 141.431C16.6278 135.559 10.875 127.06 6.89773 115.933C2.92046 104.759 0.931819 91.2649 0.931819 75.4505C0.931819 59.7308 2.92046 46.3075 6.89773 35.1806C10.9223 24.0063 16.6989 15.4836 24.2273 9.61238C31.803 3.69383 40.8939 0.734547 51.5 0.734547C62.1061 0.734547 71.1733 3.69383 78.7017 9.61238C86.2775 15.4836 92.054 24.0063 96.0312 35.1806C100.056 46.3075 102.068 59.7308 102.068 75.4505C102.068 91.2649 100.08 104.759 96.1023 115.933C92.125 127.06 86.3722 135.559 78.8438 141.431C71.3153 147.254 62.2008 150.166 51.5 150.166ZM51.5 134.541C62.1061 134.541 70.3447 129.428 76.2159 119.2C82.0871 108.973 85.0227 94.3899 85.0227 75.4505C85.0227 62.8558 83.6733 52.1313 80.9744 43.2772C78.3229 34.423 74.4877 27.6758 69.4688 23.0357C64.4972 18.3955 58.5076 16.0755 51.5 16.0755C40.9886 16.0755 32.7737 21.2601 26.8551 31.6294C20.9366 41.9514 17.9773 56.5584 17.9773 75.4505C17.9773 88.0452 19.303 98.7459 21.9545 107.553C24.6061 116.36 28.4176 123.059 33.3892 127.652C38.4081 132.245 44.4451 134.541 51.5 134.541ZM180.193 2.72318V148.178H162.58V21.1891H161.727L126.216 44.7686V26.8709L162.58 2.72318H180.193ZM237.082 2.72318V15.5073C237.082 19.3898 236.372 23.5328 234.952 27.9363C233.579 32.2923 231.543 36.53 228.844 40.6493C226.192 44.7213 222.973 48.2724 219.185 51.3027L210.094 43.9164C213.077 39.655 215.657 35.2279 217.835 30.6351C220.061 25.995 221.173 21.047 221.173 15.7914V2.72318H237.082Z" fill="#343434" fill-opacity="0.5"/>
</svg>
