<svg width="266" height="151" viewBox="0 0 266 151" fill="none" xmlns="http://www.w3.org/2000/svg">
<path d="M51.5 150.382C40.7992 150.382 31.6847 147.47 24.1562 141.646C16.6278 135.775 10.875 127.276 6.89773 116.149C2.92046 104.975 0.931819 91.4802 0.931819 75.6658C0.931819 59.9461 2.92046 46.5228 6.89773 35.3959C10.9223 24.2217 16.6989 15.6989 24.2273 9.82772C31.803 3.90916 40.8939 0.949879 51.5 0.949879C62.1061 0.949879 71.1733 3.90916 78.7017 9.82772C86.2775 15.6989 92.054 24.2217 96.0312 35.3959C100.056 46.5228 102.068 59.9461 102.068 75.6658C102.068 91.4802 100.08 104.975 96.1023 116.149C92.125 127.276 86.3722 135.775 78.8438 141.646C71.3153 147.47 62.2008 150.382 51.5 150.382ZM51.5 134.757C62.1061 134.757 70.3447 129.643 76.2159 119.416C82.0871 109.189 85.0227 94.6052 85.0227 75.6658C85.0227 63.0711 83.6733 52.3467 80.9744 43.4925C78.3229 34.6383 74.4877 27.8912 69.4688 23.251C64.4972 18.6109 58.5076 16.2908 51.5 16.2908C40.9886 16.2908 32.7737 21.4754 26.8551 31.8448C20.9366 42.1667 17.9773 56.7737 17.9773 75.6658C17.9773 88.2605 19.303 98.9612 21.9545 107.768C24.6061 116.575 28.4176 123.275 33.3892 127.867C38.4081 132.46 44.4451 134.757 51.5 134.757ZM129.057 148.393V135.609L177.068 83.0522C182.703 76.8968 187.343 71.5465 190.989 67.001C194.634 62.4082 197.333 58.0995 199.085 54.0749C200.884 50.0029 201.784 45.7415 201.784 41.2908C201.784 36.1772 200.553 31.7501 198.091 28.0095C195.676 24.269 192.362 21.3808 188.148 19.3448C183.934 17.3088 179.199 16.2908 173.943 16.2908C168.356 16.2908 163.479 17.4508 159.312 19.7709C155.193 22.0436 151.997 25.2397 149.724 29.359C147.499 33.4783 146.386 38.3078 146.386 43.8476H129.625C129.625 35.3249 131.59 27.8438 135.52 21.4044C139.45 14.965 144.8 9.94609 151.571 6.3476C158.389 2.74912 166.036 0.949879 174.511 0.949879C183.034 0.949879 190.586 2.74912 197.168 6.3476C203.749 9.94609 208.91 14.7993 212.651 20.9073C216.391 27.0152 218.261 33.8097 218.261 41.2908C218.261 46.6412 217.291 51.8732 215.349 56.9868C213.455 62.0531 210.141 67.7112 205.406 73.9612C200.719 80.1639 194.208 87.7397 185.875 96.6885L153.205 131.632V132.768H220.818V148.393H129.057ZM265.207 2.93852V15.7226C265.207 19.6052 264.497 23.7482 263.077 28.1516C261.704 32.5076 259.668 36.7453 256.969 40.8647C254.317 44.9366 251.098 48.4878 247.31 51.5181L238.219 44.1317C241.202 39.8703 243.782 35.4433 245.96 30.8505C248.186 26.2103 249.298 21.2624 249.298 16.0067V2.93852H265.207Z" fill="#343434" fill-opacity="0.5"/>
</svg>
