<svg width="272" height="150" viewBox="0 0 272 150" fill="none" xmlns="http://www.w3.org/2000/svg">
<path d="M51.5 149.597C40.7992 149.597 31.6847 146.685 24.1562 140.861C16.6278 134.99 10.875 126.491 6.89773 115.364C2.92046 104.19 0.931819 90.6955 0.931819 74.8811C0.931819 59.1614 2.92046 45.7381 6.89773 34.6112C10.9223 23.437 16.6989 14.9143 24.2273 9.04305C31.803 3.12449 40.8939 0.165211 51.5 0.165211C62.1061 0.165211 71.1733 3.12449 78.7017 9.04305C86.2775 14.9143 92.054 23.437 96.0312 34.6112C100.056 45.7381 102.068 59.1614 102.068 74.8811C102.068 90.6955 100.08 104.19 96.1023 115.364C92.125 126.491 86.3722 134.99 78.8438 140.861C71.3153 146.685 62.2008 149.597 51.5 149.597ZM51.5 133.972C62.1061 133.972 70.3447 128.858 76.2159 118.631C82.0871 108.404 85.0227 93.8205 85.0227 74.8811C85.0227 62.2864 83.6733 51.562 80.9744 42.7078C78.3229 33.8537 74.4877 27.1065 69.4688 22.4663C64.4972 17.8262 58.5076 15.5061 51.5 15.5061C40.9886 15.5061 32.7737 20.6908 26.8551 31.0601C20.9366 41.3821 17.9773 55.9891 17.9773 74.8811C17.9773 87.4758 19.303 98.1766 21.9545 106.983C24.6061 115.79 28.4176 122.49 33.3892 127.083C38.4081 131.676 44.4451 133.972 51.5 133.972ZM178.205 149.597C168.83 149.597 160.473 147.987 153.134 144.767C145.842 141.548 140.042 137.073 135.733 131.344C131.472 125.568 129.152 118.868 128.773 111.245H146.67C147.049 115.932 148.659 119.981 151.5 123.39C154.341 126.751 158.058 129.356 162.651 131.202C167.243 133.049 172.333 133.972 177.92 133.972C184.17 133.972 189.71 132.883 194.54 130.705C199.369 128.527 203.157 125.497 205.903 121.614C208.65 117.732 210.023 113.233 210.023 108.12C210.023 102.769 208.697 98.0582 206.045 93.9862C203.394 89.8669 199.511 86.6472 194.398 84.3271C189.284 82.0071 183.034 80.847 175.648 80.847H164V65.222H175.648C181.424 65.222 186.491 64.1804 190.847 62.097C195.25 60.0137 198.683 57.0781 201.145 53.2902C203.654 49.5023 204.909 45.0516 204.909 39.9379C204.909 35.0137 203.82 30.7287 201.642 27.0828C199.464 23.437 196.386 20.5961 192.409 18.5601C188.479 16.5241 183.839 15.5061 178.489 15.5061C173.47 15.5061 168.735 16.4294 164.284 18.276C159.881 20.0753 156.282 22.7031 153.489 26.1595C150.695 29.5686 149.18 33.6879 148.943 38.5175H131.898C132.182 30.8944 134.478 24.2182 138.787 18.4891C143.096 12.7126 148.73 8.21445 155.69 4.99476C162.698 1.77506 170.392 0.165211 178.773 0.165211C187.769 0.165211 195.487 1.98813 201.926 5.63396C208.366 9.23244 213.313 13.991 216.77 19.9095C220.226 25.8281 221.955 32.2201 221.955 39.0857C221.955 47.277 219.8 54.2609 215.491 60.0374C211.23 65.8139 205.43 69.8148 198.091 72.0402V73.1766C207.277 74.6917 214.45 78.598 219.611 84.8953C224.772 91.1453 227.352 98.8868 227.352 108.12C227.352 116.027 225.198 123.129 220.889 129.427C216.628 135.677 210.804 140.601 203.418 144.199C196.031 147.798 187.627 149.597 178.205 149.597ZM271.457 2.15385V14.9379C271.457 18.8205 270.747 22.9635 269.327 27.3669C267.954 31.723 265.918 35.9607 263.219 40.08C260.567 44.152 257.348 47.7031 253.56 50.7334L244.469 43.347C247.452 39.0857 250.032 34.6586 252.21 30.0658C254.436 25.4256 255.548 20.4777 255.548 15.222V2.15385H271.457Z" fill="#343434" fill-opacity="0.5"/>
</svg>
