<svg width="75" height="71" viewBox="0 0 75 71" fill="none" xmlns="http://www.w3.org/2000/svg">
<path fill-rule="evenodd" clip-rule="evenodd" d="M72.6446 1.87258C67.4925 37.1371 35.8509 54.2662 2.81867 58.161C2.25144 58.2289 1.84361 58.7439 1.91158 59.3111C1.97954 59.8784 2.49446 60.2861 3.06168 60.2182C37.0193 56.2162 69.3981 38.4232 74.6939 2.17054C74.7775 1.60593 74.3854 1.08053 73.8182 0.996884C73.2536 0.913239 72.7283 1.30535 72.6446 1.87258Z" fill="#00D4D0"/>
<path fill-rule="evenodd" clip-rule="evenodd" d="M3.56014 59.117C5.02917 58.0427 6.88768 56.7148 7.09418 56.558C12.6906 52.3077 17.3277 47.417 21.4107 41.6795C21.7427 41.2142 21.6328 40.5659 21.1676 40.234C20.7023 39.902 20.0541 40.0118 19.7221 40.4771C15.7646 46.0422 11.2687 50.7864 5.83954 54.9086C5.52326 55.1491 1.34351 58.1316 0.54365 58.7981C0.214294 59.07 0.112422 59.3261 0.0941247 59.3889C-0.0156605 59.7182 0.0496674 59.977 0.138541 60.1652C0.240484 60.3769 0.49397 60.6854 0.985389 60.8422C1.50033 61.0043 2.64529 61.0775 2.93282 61.1193C7.26933 61.7623 12.1653 62.1021 16.622 63.3359C20.8723 64.5122 24.7277 66.504 27.2005 70.4955C27.5011 70.9816 28.1415 71.1306 28.6277 70.83C29.1139 70.5294 29.263 69.889 28.9624 69.4028C26.1968 64.9409 21.9256 62.6537 17.1761 61.3388C12.7455 60.1129 7.89404 59.7417 3.56014 59.117Z" fill="#00D4D0"/>
</svg>
