<svg width="20" height="194" viewBox="0 0 20 194" fill="none" xmlns="http://www.w3.org/2000/svg">
<path d="M19.99 16.338L3.62999 32.778L19.99 49.228L3.62999 65.668L19.99 82.108L5.55999 96.608L19.99 111.118L3.62999 127.558L19.99 144.008L3.62999 160.448L19.99 176.888L3.74999 193.208L1.92999 191.388L16.36 176.888L-7.62939e-06 160.448L16.36 144.008L-7.62939e-06 127.558L16.36 111.118L1.91999 96.608L16.36 82.108L-7.62939e-06 65.668L16.36 49.228L-7.62939e-06 32.778L16.36 16.338L1.92999 1.828L3.74999 0.0180054L19.99 16.338Z" fill="#C17C74"/>
</svg>
