<svg width="24" height="37" viewBox="0 0 24 37" fill="none" xmlns="http://www.w3.org/2000/svg">
<g clip-path="url(#clip0_292_46)">
<path d="M6.00245 36.8232C9.31318 36.8232 12.0001 34.1362 12.0001 30.8255V24.8278H6.00245C2.69173 24.8278 0.00476074 27.5148 0.00476074 30.8255C0.00476074 34.1362 2.69173 36.8232 6.00245 36.8232Z" fill="#0ACF83"/>
<path d="M0.00476074 18.8305C0.00476074 15.5197 2.69173 12.8328 6.00245 12.8328H12.0001V24.8282H6.00245C2.69173 24.8282 0.00476074 22.1412 0.00476074 18.8305Z" fill="#A259FF"/>
<path d="M0.00488281 6.83485C0.00488281 3.52413 2.69185 0.837158 6.00258 0.837158H12.0003V12.8325H6.00258C2.69185 12.8325 0.00488281 10.1456 0.00488281 6.83485Z" fill="#F24E1E"/>
<path d="M11.9998 0.837219H17.9974C21.3082 0.837219 23.9951 3.52419 23.9951 6.83491C23.9951 10.1456 21.3082 12.8326 17.9974 12.8326H11.9998V0.837219Z" fill="#FF7262"/>
<path d="M23.9951 18.8305C23.9951 22.1412 21.3082 24.8282 17.9974 24.8282C14.6867 24.8282 11.9998 22.1412 11.9998 18.8305C11.9998 15.5197 14.6867 12.8328 17.9974 12.8328C21.3082 12.8328 23.9951 15.5197 23.9951 18.8305Z" fill="#1ABCFE"/>
</g>
<defs>
<clipPath id="clip0_292_46">
<rect width="24" height="35.9862" fill="white" transform="translate(0 0.837158)"/>
</clipPath>
</defs>
</svg>
