<svg width="156" height="145" viewBox="0 0 156 145" fill="none" xmlns="http://www.w3.org/2000/svg">
<g clip-path="url(#clip0_31_340)">
<path d="M94.6667 52.5361C96.9583 52.5361 98.8125 50.6611 98.8125 48.3694L98.8333 27.5361C98.8333 26.431 98.3943 25.3712 97.6129 24.5898C96.8315 23.8084 95.7717 23.3694 94.6667 23.3694H61.3333C59.0208 23.3694 57.1667 25.2236 57.1667 27.5361V48.3694C57.1667 49.4745 57.6057 50.5343 58.3871 51.3157C59.1685 52.0971 60.2283 52.5361 61.3333 52.5361H53V56.7027H103V52.5361H94.6667ZM61.3333 48.3694V27.5361H94.6667V48.3902L61.3333 48.3694ZM71.9521 35.7715C71.9521 33.6319 73.6938 31.8881 75.8354 31.8881C77.975 31.8881 79.7187 33.6319 79.7187 35.7715C79.7171 36.8009 79.3074 37.7877 78.5795 38.5156C77.8516 39.2435 76.8648 39.6532 75.8354 39.6548C74.806 39.6532 73.8192 39.2435 73.0913 38.5156C72.3634 37.7877 71.9537 36.8009 71.9521 35.7715ZM86.6021 44.5965L81.4312 39.4256C82.1465 38.3411 82.5282 37.0707 82.5292 35.7715C82.5275 33.9963 81.8215 32.2944 80.566 31.0394C79.3106 29.7843 77.6085 29.0788 75.8333 29.0777C74.0584 29.0794 72.3565 29.7851 71.1012 31.04C69.8459 32.2949 69.1397 33.9965 69.1375 35.7715C69.1397 37.5466 69.8459 39.2485 71.1011 40.5037C72.3563 41.7589 74.0582 42.4651 75.8333 42.4673C77.1077 42.4648 78.3544 42.096 79.425 41.4048L84.6104 46.5861L86.6 44.5965H86.6021Z" fill="#C17C74"/>
</g>
<path d="M65.2841 96.3361C64.2507 96.3361 63.3174 96.1595 62.4841 95.8061C61.6574 95.4461 60.9741 94.9361 60.4341 94.2761C59.9007 93.6095 59.5541 92.8195 59.3941 91.9061L61.5741 91.5761C61.7941 92.4561 62.2541 93.1428 62.9541 93.6361C63.6541 94.1228 64.4707 94.3661 65.4041 94.3661C65.9841 94.3661 66.5174 94.2761 67.0041 94.0961C67.4907 93.9095 67.8807 93.6461 68.1741 93.3061C68.4741 92.9595 68.6241 92.5461 68.6241 92.0661C68.6241 91.8061 68.5774 91.5761 68.4841 91.3761C68.3974 91.1761 68.2741 91.0028 68.1141 90.8561C67.9607 90.7028 67.7707 90.5728 67.5441 90.4661C67.3241 90.3528 67.0807 90.2561 66.8141 90.1761L63.1241 89.0861C62.7641 88.9795 62.3974 88.8428 62.0241 88.6761C61.6507 88.5028 61.3074 88.2795 60.9941 88.0061C60.6874 87.7261 60.4374 87.3828 60.2441 86.9761C60.0507 86.5628 59.9541 86.0628 59.9541 85.4761C59.9541 84.5895 60.1807 83.8395 60.6341 83.2261C61.0941 82.6061 61.7141 82.1395 62.4941 81.8261C63.2741 81.5061 64.1474 81.3461 65.1141 81.3461C66.0874 81.3595 66.9574 81.5328 67.7241 81.8661C68.4974 82.1995 69.1374 82.6795 69.6441 83.3061C70.1574 83.9261 70.5107 84.6795 70.7041 85.5661L68.4641 85.9461C68.3641 85.4061 68.1507 84.9428 67.8241 84.5561C67.4974 84.1628 67.0974 83.8628 66.6241 83.6561C66.1507 83.4428 65.6374 83.3328 65.0841 83.3261C64.5507 83.3128 64.0607 83.3928 63.6141 83.5661C63.1741 83.7395 62.8207 83.9828 62.5541 84.2961C62.2941 84.6095 62.1641 84.9695 62.1641 85.3761C62.1641 85.7761 62.2807 86.0995 62.5141 86.3461C62.7474 86.5928 63.0341 86.7895 63.3741 86.9361C63.7207 87.0761 64.0641 87.1928 64.4041 87.2861L67.0641 88.0361C67.3974 88.1295 67.7741 88.2561 68.1941 88.4161C68.6207 88.5695 69.0307 88.7861 69.4241 89.0661C69.8241 89.3461 70.1541 89.7195 70.4141 90.1861C70.6741 90.6461 70.8041 91.2261 70.8041 91.9261C70.8041 92.6528 70.6574 93.2928 70.3641 93.8461C70.0707 94.3928 69.6674 94.8528 69.1541 95.2261C68.6474 95.5928 68.0607 95.8695 67.3941 96.0561C66.7274 96.2428 66.0241 96.3361 65.2841 96.3361ZM72.9352 96.0361V81.6361H82.1352V83.6061H75.0252V87.6461H80.9352V89.6161H75.0252V94.0661H82.1352V96.0361H72.9352ZM89.9413 96.3361C88.5013 96.3361 87.2746 96.0228 86.2613 95.3961C85.2479 94.7628 84.4713 93.8828 83.9313 92.7561C83.3979 91.6295 83.1313 90.3228 83.1313 88.8361C83.1313 87.3495 83.3979 86.0428 83.9313 84.9161C84.4713 83.7895 85.2479 82.9128 86.2613 82.2861C87.2746 81.6528 88.5013 81.3361 89.9413 81.3361C91.3746 81.3361 92.5979 81.6528 93.6113 82.2861C94.6313 82.9128 95.4079 83.7895 95.9413 84.9161C96.4746 86.0428 96.7413 87.3495 96.7413 88.8361C96.7413 90.3228 96.4746 91.6295 95.9413 92.7561C95.4079 93.8828 94.6313 94.7628 93.6113 95.3961C92.5979 96.0228 91.3746 96.3361 89.9413 96.3361ZM89.9413 94.3461C90.9613 94.3595 91.8079 94.1361 92.4813 93.6761C93.1613 93.2095 93.6713 92.5628 94.0113 91.7361C94.3513 90.9028 94.5213 89.9361 94.5213 88.8361C94.5213 87.7361 94.3513 86.7761 94.0113 85.9561C93.6713 85.1295 93.1613 84.4861 92.4813 84.0261C91.8079 83.5661 90.9613 83.3328 89.9413 83.3261C88.9213 83.3128 88.0713 83.5361 87.3913 83.9961C86.7179 84.4561 86.2113 85.1028 85.8713 85.9361C85.5313 86.7695 85.3579 87.7361 85.3513 88.8361C85.3446 89.9361 85.5113 90.8995 85.8513 91.7261C86.1913 92.5461 86.7013 93.1861 87.3813 93.6461C88.0679 94.1061 88.9213 94.3395 89.9413 94.3461ZM43.4579 123.336C42.4246 123.336 41.4912 123.159 40.6579 122.806C39.8312 122.446 39.1479 121.936 38.6079 121.276C38.0746 120.609 37.7279 119.819 37.5679 118.906L39.7479 118.576C39.9679 119.456 40.4279 120.143 41.1279 120.636C41.8279 121.123 42.6446 121.366 43.5779 121.366C44.1579 121.366 44.6912 121.276 45.1779 121.096C45.6646 120.909 46.0546 120.646 46.3479 120.306C46.6479 119.959 46.7979 119.546 46.7979 119.066C46.7979 118.806 46.7512 118.576 46.6579 118.376C46.5712 118.176 46.4479 118.003 46.2879 117.856C46.1346 117.703 45.9446 117.573 45.7179 117.466C45.4979 117.353 45.2546 117.256 44.9879 117.176L41.2979 116.086C40.9379 115.979 40.5712 115.843 40.1979 115.676C39.8246 115.503 39.4812 115.279 39.1679 115.006C38.8612 114.726 38.6112 114.383 38.4179 113.976C38.2246 113.563 38.1279 113.063 38.1279 112.476C38.1279 111.589 38.3546 110.839 38.8079 110.226C39.2679 109.606 39.8879 109.139 40.6679 108.826C41.4479 108.506 42.3212 108.346 43.2879 108.346C44.2612 108.359 45.1312 108.533 45.8979 108.866C46.6712 109.199 47.3112 109.679 47.8179 110.306C48.3312 110.926 48.6846 111.679 48.8779 112.566L46.6379 112.946C46.5379 112.406 46.3246 111.943 45.9979 111.556C45.6712 111.163 45.2712 110.863 44.7979 110.656C44.3246 110.443 43.8112 110.333 43.2579 110.326C42.7246 110.313 42.2346 110.393 41.7879 110.566C41.3479 110.739 40.9946 110.983 40.7279 111.296C40.4679 111.609 40.3379 111.969 40.3379 112.376C40.3379 112.776 40.4546 113.099 40.6879 113.346C40.9212 113.593 41.2079 113.789 41.5479 113.936C41.8946 114.076 42.2379 114.193 42.5779 114.286L45.2379 115.036C45.5712 115.129 45.9479 115.256 46.3679 115.416C46.7946 115.569 47.2046 115.786 47.5979 116.066C47.9979 116.346 48.3279 116.719 48.5879 117.186C48.8479 117.646 48.9779 118.226 48.9779 118.926C48.9779 119.653 48.8312 120.293 48.5379 120.846C48.2446 121.393 47.8412 121.853 47.3279 122.226C46.8212 122.593 46.2346 122.869 45.5679 123.056C44.9012 123.243 44.1979 123.336 43.4579 123.336ZM55.899 123.336C54.8257 123.336 53.8823 123.103 53.069 122.636C52.2623 122.163 51.6323 121.506 51.179 120.666C50.7323 119.819 50.509 118.839 50.509 117.726C50.509 116.546 50.729 115.523 51.169 114.656C51.6157 113.789 52.2357 113.119 53.029 112.646C53.8223 112.173 54.7457 111.936 55.799 111.936C56.899 111.936 57.8357 112.193 58.609 112.706C59.3823 113.213 59.959 113.936 60.339 114.876C60.7257 115.816 60.879 116.933 60.799 118.226H58.709V117.466C58.6957 116.213 58.4557 115.286 57.989 114.686C57.529 114.086 56.8257 113.786 55.879 113.786C54.8323 113.786 54.0457 114.116 53.519 114.776C52.9923 115.436 52.729 116.389 52.729 117.636C52.729 118.823 52.9923 119.743 53.519 120.396C54.0457 121.043 54.8057 121.366 55.799 121.366C56.4523 121.366 57.0157 121.219 57.489 120.926C57.969 120.626 58.3423 120.199 58.609 119.646L60.659 120.296C60.239 121.263 59.6023 122.013 58.749 122.546C57.8957 123.073 56.9457 123.336 55.899 123.336ZM52.049 118.226V116.596H59.759V118.226H52.049ZM63.0426 123.036V112.236H64.9026V114.856L64.6426 114.516C64.7759 114.169 64.9492 113.853 65.1626 113.566C65.3759 113.273 65.6226 113.033 65.9026 112.846C66.1759 112.646 66.4792 112.493 66.8126 112.386C67.1526 112.273 67.4992 112.206 67.8526 112.186C68.2059 112.159 68.5459 112.176 68.8726 112.236V114.196C68.5192 114.103 68.1259 114.076 67.6926 114.116C67.2659 114.156 66.8726 114.293 66.5126 114.526C66.1726 114.746 65.9026 115.013 65.7026 115.326C65.5092 115.639 65.3692 115.989 65.2826 116.376C65.1959 116.756 65.1526 117.159 65.1526 117.586V123.036H63.0426ZM73.697 123.036L69.777 112.236H71.887L74.757 120.416L77.627 112.236H79.737L75.817 123.036H73.697ZM81.7387 110.466V108.436H83.8287V110.466H81.7387ZM81.7387 123.036V112.236H83.8287V123.036H81.7387ZM91.4516 123.336C90.345 123.336 89.405 123.089 88.6316 122.596C87.8583 122.103 87.265 121.426 86.8516 120.566C86.445 119.706 86.2383 118.729 86.2316 117.636C86.2383 116.523 86.4516 115.539 86.8716 114.686C87.2916 113.826 87.8916 113.153 88.6716 112.666C89.4516 112.179 90.3883 111.936 91.4816 111.936C92.6616 111.936 93.6683 112.229 94.5016 112.816C95.3416 113.403 95.895 114.206 96.1616 115.226L94.0816 115.826C93.875 115.219 93.535 114.749 93.0616 114.416C92.595 114.076 92.0583 113.906 91.4516 113.906C90.765 113.906 90.2016 114.069 89.7616 114.396C89.3216 114.716 88.995 115.156 88.7816 115.716C88.5683 116.276 88.4583 116.916 88.4516 117.636C88.4583 118.749 88.7116 119.649 89.2116 120.336C89.7183 121.023 90.465 121.366 91.4516 121.366C92.125 121.366 92.6683 121.213 93.0816 120.906C93.5016 120.593 93.8216 120.146 94.0416 119.566L96.1616 120.066C95.8083 121.119 95.225 121.929 94.4116 122.496C93.5983 123.056 92.6116 123.336 91.4516 123.336ZM102.696 123.336C101.623 123.336 100.679 123.103 99.8659 122.636C99.0592 122.163 98.4292 121.506 97.9759 120.666C97.5292 119.819 97.3059 118.839 97.3059 117.726C97.3059 116.546 97.5259 115.523 97.9659 114.656C98.4125 113.789 99.0325 113.119 99.8259 112.646C100.619 112.173 101.543 111.936 102.596 111.936C103.696 111.936 104.633 112.193 105.406 112.706C106.179 113.213 106.756 113.936 107.136 114.876C107.523 115.816 107.676 116.933 107.596 118.226H105.506V117.466C105.493 116.213 105.253 115.286 104.786 114.686C104.326 114.086 103.623 113.786 102.676 113.786C101.629 113.786 100.843 114.116 100.316 114.776C99.7892 115.436 99.5259 116.389 99.5259 117.636C99.5259 118.823 99.7892 119.743 100.316 120.396C100.843 121.043 101.603 121.366 102.596 121.366C103.249 121.366 103.813 121.219 104.286 120.926C104.766 120.626 105.139 120.199 105.406 119.646L107.456 120.296C107.036 121.263 106.399 122.013 105.546 122.546C104.693 123.073 103.743 123.336 102.696 123.336ZM98.8459 118.226V116.596H106.556V118.226H98.8459ZM113.969 123.326C112.656 123.326 111.586 123.036 110.759 122.456C109.933 121.876 109.426 121.059 109.239 120.006L111.379 119.676C111.513 120.236 111.819 120.679 112.299 121.006C112.786 121.326 113.389 121.486 114.109 121.486C114.763 121.486 115.273 121.353 115.639 121.086C116.013 120.819 116.199 120.453 116.199 119.986C116.199 119.713 116.133 119.493 115.999 119.326C115.873 119.153 115.603 118.989 115.189 118.836C114.776 118.683 114.146 118.493 113.299 118.266C112.373 118.026 111.636 117.769 111.089 117.496C110.549 117.216 110.163 116.893 109.929 116.526C109.703 116.153 109.589 115.703 109.589 115.176C109.589 114.523 109.763 113.953 110.109 113.466C110.456 112.979 110.943 112.603 111.569 112.336C112.203 112.069 112.943 111.936 113.789 111.936C114.616 111.936 115.353 112.066 115.999 112.326C116.646 112.586 117.169 112.956 117.569 113.436C117.969 113.909 118.209 114.466 118.289 115.106L116.149 115.496C116.076 114.976 115.833 114.566 115.419 114.266C115.006 113.966 114.469 113.803 113.809 113.776C113.176 113.749 112.663 113.856 112.269 114.096C111.876 114.329 111.679 114.653 111.679 115.066C111.679 115.306 111.753 115.509 111.899 115.676C112.053 115.843 112.346 116.003 112.779 116.156C113.213 116.309 113.853 116.493 114.699 116.706C115.606 116.939 116.326 117.199 116.859 117.486C117.393 117.766 117.773 118.103 117.999 118.496C118.233 118.883 118.349 119.353 118.349 119.906C118.349 120.973 117.959 121.809 117.179 122.416C116.406 123.023 115.336 123.326 113.969 123.326Z" fill="#AEAEAE"/>
<rect x="11" y="10.0361" width="18" height="18" rx="3" stroke="#5C5C5C" stroke-width="2"/>
<rect x="0.5" y="0.536133" width="155" height="143" rx="9.5" stroke="#5C5C5C"/>
<defs>
<clipPath id="clip0_31_340">
<rect width="50" height="50" fill="white" transform="translate(53 15.0361)"/>
</clipPath>
</defs>
</svg>
