<svg width="156" height="145" viewBox="0 0 156 145" fill="none" xmlns="http://www.w3.org/2000/svg">
<path d="M88.9375 25.9736H95.1875V32.2236H88.9375V25.9736ZM88.9375 35.3486H95.1875V41.5986H88.9375V35.3486ZM79.5625 25.9736H85.8125V32.2236H79.5625V25.9736ZM79.5625 35.3486H85.8125V41.5986H79.5625V35.3486Z" fill="#1481AE"/>
<path d="M75.6562 55.6611C76.9507 55.6611 78 54.6118 78 53.3174C78 52.023 76.9507 50.9736 75.6562 50.9736C74.3618 50.9736 73.3125 52.023 73.3125 53.3174C73.3125 54.6118 74.3618 55.6611 75.6562 55.6611Z" fill="#1481AE"/>
<path d="M85.8125 61.9111H65.5C64.6715 61.9103 63.8771 61.5808 63.2912 60.9949C62.7053 60.4091 62.3758 59.6147 62.375 58.7861V21.2861C62.3758 20.4576 62.7053 19.6632 63.2912 19.0773C63.8771 18.4915 64.6715 18.162 65.5 18.1611H85.8125V21.2861H65.5V58.7861H85.8125V46.2861H88.9375V58.7861C88.9367 59.6147 88.6072 60.4091 88.0213 60.9949C87.4354 61.5808 86.641 61.9103 85.8125 61.9111Z" fill="#1481AE"/>
<path d="M26.7047 96.0361V81.6361H28.5947L33.8147 92.4661L39.0047 81.6361H40.9147V96.0261H38.9347V86.1761L34.2847 96.0361H33.3347L28.6747 86.1761V96.0361H26.7047ZM48.4064 96.3361C47.3264 96.3361 46.3897 96.0928 45.5964 95.6061C44.8031 95.1195 44.1897 94.4495 43.7564 93.5961C43.3297 92.7361 43.1164 91.7461 43.1164 90.6261C43.1164 89.4995 43.3364 88.5095 43.7764 87.6561C44.2164 86.7961 44.8331 86.1295 45.6264 85.6561C46.4197 85.1761 47.3464 84.9361 48.4064 84.9361C49.4864 84.9361 50.4231 85.1795 51.2164 85.6661C52.0097 86.1528 52.6231 86.8228 53.0564 87.6761C53.4897 88.5295 53.7064 89.5128 53.7064 90.6261C53.7064 91.7528 53.4864 92.7461 53.0464 93.6061C52.6131 94.4595 51.9997 95.1295 51.2064 95.6161C50.4131 96.0961 49.4797 96.3361 48.4064 96.3361ZM48.4064 94.3661C49.4397 94.3661 50.2097 94.0195 50.7164 93.3261C51.2297 92.6261 51.4864 91.7261 51.4864 90.6261C51.4864 89.4995 51.2264 88.5995 50.7064 87.9261C50.1931 87.2461 49.4264 86.9061 48.4064 86.9061C47.7064 86.9061 47.1297 87.0661 46.6764 87.3861C46.2231 87.6995 45.8864 88.1361 45.6664 88.6961C45.4464 89.2495 45.3364 89.8928 45.3364 90.6261C45.3364 91.7595 45.5964 92.6661 46.1164 93.3461C46.6364 94.0261 47.3997 94.3661 48.4064 94.3661ZM60.9739 96.3361C59.9406 96.3361 59.0739 96.0861 58.3739 95.5861C57.6739 95.0795 57.1439 94.3961 56.7839 93.5361C56.4239 92.6761 56.2439 91.7061 56.2439 90.6261C56.2439 89.5461 56.4206 88.5761 56.7739 87.7161C57.1339 86.8561 57.6606 86.1795 58.3539 85.6861C59.0539 85.1861 59.9139 84.9361 60.9339 84.9361C61.9472 84.9361 62.8206 85.1861 63.5539 85.6861C64.2939 86.1795 64.8639 86.8561 65.2639 87.7161C65.6639 88.5695 65.8639 89.5395 65.8639 90.6261C65.8639 91.7061 65.6639 92.6795 65.2639 93.5461C64.8706 94.4061 64.3072 95.0861 63.5739 95.5861C62.8472 96.0861 61.9806 96.3361 60.9739 96.3361ZM55.8939 96.0361V81.6361H57.9939V88.2661H57.7539V96.0361H55.8939ZM60.6839 94.4461C61.3506 94.4461 61.9006 94.2761 62.3339 93.9361C62.7739 93.5961 63.1006 93.1395 63.3139 92.5661C63.5339 91.9861 63.6439 91.3395 63.6439 90.6261C63.6439 89.9195 63.5339 89.2795 63.3139 88.7061C63.1006 88.1328 62.7706 87.6761 62.3239 87.3361C61.8772 86.9961 61.3072 86.8261 60.6139 86.8261C59.9606 86.8261 59.4206 86.9861 58.9939 87.3061C58.5739 87.6261 58.2606 88.0728 58.0539 88.6461C57.8539 89.2195 57.7539 89.8795 57.7539 90.6261C57.7539 91.3728 57.8539 92.0328 58.0539 92.6061C58.2539 93.1795 58.5706 93.6295 59.0039 93.9561C59.4372 94.2828 59.9972 94.4461 60.6839 94.4461ZM68.2719 83.4661V81.4361H70.3619V83.4661H68.2719ZM68.2719 96.0361V85.2361H70.3619V96.0361H68.2719ZM73.5648 96.0361V81.3361H75.6548V96.0361H73.5648ZM83.4478 96.3361C82.3745 96.3361 81.4311 96.1028 80.6178 95.6361C79.8111 95.1628 79.1811 94.5061 78.7278 93.6661C78.2811 92.8195 78.0578 91.8395 78.0578 90.7261C78.0578 89.5461 78.2778 88.5228 78.7178 87.6561C79.1645 86.7895 79.7845 86.1195 80.5778 85.6461C81.3711 85.1728 82.2945 84.9361 83.3478 84.9361C84.4478 84.9361 85.3845 85.1928 86.1578 85.7061C86.9311 86.2128 87.5078 86.9361 87.8878 87.8761C88.2745 88.8161 88.4278 89.9328 88.3478 91.2261H86.2578V90.4661C86.2445 89.2128 86.0045 88.2861 85.5378 87.6861C85.0778 87.0861 84.3745 86.7861 83.4278 86.7861C82.3811 86.7861 81.5945 87.1161 81.0678 87.7761C80.5411 88.4361 80.2778 89.3895 80.2778 90.6361C80.2778 91.8228 80.5411 92.7428 81.0678 93.3961C81.5945 94.0428 82.3545 94.3661 83.3478 94.3661C84.0011 94.3661 84.5645 94.2195 85.0378 93.9261C85.5178 93.6261 85.8911 93.1995 86.1578 92.6461L88.2078 93.2961C87.7878 94.2628 87.1511 95.0128 86.2978 95.5461C85.4445 96.0728 84.4945 96.3361 83.4478 96.3361ZM79.5978 91.2261V89.5961H87.3078V91.2261H79.5978ZM93.5953 96.0361L98.2753 81.6361H101.285L105.965 96.0361H103.795L99.4853 82.8961H100.025L95.7653 96.0361H93.5953ZM96.0253 92.7861V90.8261H103.545V92.7861H96.0253ZM112.829 96.3361C111.796 96.3361 110.929 96.0861 110.229 95.5861C109.529 95.0795 108.999 94.3961 108.639 93.5361C108.279 92.6761 108.099 91.7061 108.099 90.6261C108.099 89.5461 108.276 88.5761 108.629 87.7161C108.989 86.8561 109.516 86.1795 110.209 85.6861C110.909 85.1861 111.769 84.9361 112.789 84.9361C113.803 84.9361 114.676 85.1861 115.409 85.6861C116.149 86.1795 116.719 86.8561 117.119 87.7161C117.519 88.5695 117.719 89.5395 117.719 90.6261C117.719 91.7061 117.519 92.6795 117.119 93.5461C116.726 94.4061 116.163 95.0861 115.429 95.5861C114.703 96.0861 113.836 96.3361 112.829 96.3361ZM107.749 100.836V85.2361H109.609V93.0061H109.849V100.836H107.749ZM112.539 94.4461C113.206 94.4461 113.756 94.2761 114.189 93.9361C114.629 93.5961 114.956 93.1395 115.169 92.5661C115.389 91.9861 115.499 91.3395 115.499 90.6261C115.499 89.9195 115.389 89.2795 115.169 88.7061C114.956 88.1328 114.626 87.6761 114.179 87.3361C113.733 86.9961 113.163 86.8261 112.469 86.8261C111.816 86.8261 111.276 86.9861 110.849 87.3061C110.429 87.6261 110.116 88.0728 109.909 88.6461C109.709 89.2195 109.609 89.8795 109.609 90.6261C109.609 91.3728 109.709 92.0328 109.909 92.6061C110.109 93.1795 110.426 93.6295 110.859 93.9561C111.293 94.2828 111.853 94.4461 112.539 94.4461ZM124.997 96.3361C123.964 96.3361 123.097 96.0861 122.397 95.5861C121.697 95.0795 121.167 94.3961 120.807 93.5361C120.447 92.6761 120.267 91.7061 120.267 90.6261C120.267 89.5461 120.444 88.5761 120.797 87.7161C121.157 86.8561 121.684 86.1795 122.377 85.6861C123.077 85.1861 123.937 84.9361 124.957 84.9361C125.971 84.9361 126.844 85.1861 127.577 85.6861C128.317 86.1795 128.887 86.8561 129.287 87.7161C129.687 88.5695 129.887 89.5395 129.887 90.6261C129.887 91.7061 129.687 92.6795 129.287 93.5461C128.894 94.4061 128.331 95.0861 127.597 95.5861C126.871 96.0861 126.004 96.3361 124.997 96.3361ZM119.917 100.836V85.2361H121.777V93.0061H122.017V100.836H119.917ZM124.707 94.4461C125.374 94.4461 125.924 94.2761 126.357 93.9361C126.797 93.5961 127.124 93.1395 127.337 92.5661C127.557 91.9861 127.667 91.3395 127.667 90.6261C127.667 89.9195 127.557 89.2795 127.337 88.7061C127.124 88.1328 126.794 87.6761 126.347 87.3361C125.901 86.9961 125.331 86.8261 124.637 86.8261C123.984 86.8261 123.444 86.9861 123.017 87.3061C122.597 87.6261 122.284 88.0728 122.077 88.6461C121.877 89.2195 121.777 89.8795 121.777 90.6261C121.777 91.3728 121.877 92.0328 122.077 92.6061C122.277 93.1795 122.594 93.6295 123.027 93.9561C123.461 94.2828 124.021 94.4461 124.707 94.4461ZM15.7965 123.036V108.636H20.3065C20.4398 108.636 20.6865 108.639 21.0465 108.646C21.4132 108.653 21.7632 108.679 22.0965 108.726C23.2232 108.866 24.1698 109.269 24.9365 109.936C25.7098 110.603 26.2932 111.449 26.6865 112.476C27.0798 113.496 27.2765 114.616 27.2765 115.836C27.2765 117.063 27.0798 118.189 26.6865 119.216C26.2932 120.236 25.7098 121.079 24.9365 121.746C24.1698 122.406 23.2232 122.806 22.0965 122.946C21.7632 122.993 21.4132 123.019 21.0465 123.026C20.6865 123.033 20.4398 123.036 20.3065 123.036H15.7965ZM17.9365 121.046H20.3065C20.5332 121.046 20.8032 121.039 21.1165 121.026C21.4298 121.013 21.7065 120.986 21.9465 120.946C22.6798 120.806 23.2732 120.489 23.7265 119.996C24.1865 119.496 24.5232 118.883 24.7365 118.156C24.9498 117.429 25.0565 116.656 25.0565 115.836C25.0565 114.989 24.9465 114.206 24.7265 113.486C24.5065 112.759 24.1665 112.153 23.7065 111.666C23.2532 111.173 22.6665 110.859 21.9465 110.726C21.7065 110.679 21.4265 110.653 21.1065 110.646C20.7932 110.633 20.5265 110.626 20.3065 110.626H17.9365V121.046ZM34.3951 123.336C33.3217 123.336 32.3784 123.103 31.5651 122.636C30.7584 122.163 30.1284 121.506 29.6751 120.666C29.2284 119.819 29.0051 118.839 29.0051 117.726C29.0051 116.546 29.2251 115.523 29.6651 114.656C30.1117 113.789 30.7317 113.119 31.5251 112.646C32.3184 112.173 33.2417 111.936 34.2951 111.936C35.3951 111.936 36.3317 112.193 37.1051 112.706C37.8784 113.213 38.4551 113.936 38.8351 114.876C39.2217 115.816 39.3751 116.933 39.2951 118.226H37.2051V117.466C37.1917 116.213 36.9517 115.286 36.4851 114.686C36.0251 114.086 35.3217 113.786 34.3751 113.786C33.3284 113.786 32.5417 114.116 32.0151 114.776C31.4884 115.436 31.2251 116.389 31.2251 117.636C31.2251 118.823 31.4884 119.743 32.0151 120.396C32.5417 121.043 33.3017 121.366 34.2951 121.366C34.9484 121.366 35.5117 121.219 35.9851 120.926C36.4651 120.626 36.8384 120.199 37.1051 119.646L39.1551 120.296C38.7351 121.263 38.0984 122.013 37.2451 122.546C36.3917 123.073 35.4417 123.336 34.3951 123.336ZM30.5451 118.226V116.596H38.2551V118.226H30.5451ZM44.068 123.036L40.148 112.236H42.258L45.128 120.416L47.998 112.236H50.108L46.188 123.036H44.068ZM56.3091 123.336C55.2358 123.336 54.2925 123.103 53.4791 122.636C52.6725 122.163 52.0425 121.506 51.5891 120.666C51.1425 119.819 50.9191 118.839 50.9191 117.726C50.9191 116.546 51.1391 115.523 51.5791 114.656C52.0258 113.789 52.6458 113.119 53.4391 112.646C54.2325 112.173 55.1558 111.936 56.2091 111.936C57.3091 111.936 58.2458 112.193 59.0191 112.706C59.7925 113.213 60.3691 113.936 60.7491 114.876C61.1358 115.816 61.2891 116.933 61.2091 118.226H59.1191V117.466C59.1058 116.213 58.8658 115.286 58.3991 114.686C57.9391 114.086 57.2358 113.786 56.2891 113.786C55.2425 113.786 54.4558 114.116 53.9291 114.776C53.4025 115.436 53.1391 116.389 53.1391 117.636C53.1391 118.823 53.4025 119.743 53.9291 120.396C54.4558 121.043 55.2158 121.366 56.2091 121.366C56.8625 121.366 57.4258 121.219 57.8991 120.926C58.3791 120.626 58.7525 120.199 59.0191 119.646L61.0691 120.296C60.6491 121.263 60.0125 122.013 59.1591 122.546C58.3058 123.073 57.3558 123.336 56.3091 123.336ZM52.4591 118.226V116.596H60.1691V118.226H52.4591ZM63.6527 123.036V108.336H65.7427V123.036H63.6527ZM73.4357 123.336C72.3557 123.336 71.419 123.093 70.6257 122.606C69.8324 122.119 69.219 121.449 68.7857 120.596C68.359 119.736 68.1457 118.746 68.1457 117.626C68.1457 116.499 68.3657 115.509 68.8057 114.656C69.2457 113.796 69.8624 113.129 70.6557 112.656C71.449 112.176 72.3757 111.936 73.4357 111.936C74.5157 111.936 75.4524 112.179 76.2457 112.666C77.039 113.153 77.6524 113.823 78.0857 114.676C78.519 115.529 78.7357 116.513 78.7357 117.626C78.7357 118.753 78.5157 119.746 78.0757 120.606C77.6424 121.459 77.029 122.129 76.2357 122.616C75.4424 123.096 74.509 123.336 73.4357 123.336ZM73.4357 121.366C74.469 121.366 75.239 121.019 75.7457 120.326C76.259 119.626 76.5157 118.726 76.5157 117.626C76.5157 116.499 76.2557 115.599 75.7357 114.926C75.2224 114.246 74.4557 113.906 73.4357 113.906C72.7357 113.906 72.159 114.066 71.7057 114.386C71.2524 114.699 70.9157 115.136 70.6957 115.696C70.4757 116.249 70.3657 116.893 70.3657 117.626C70.3657 118.759 70.6257 119.666 71.1457 120.346C71.6657 121.026 72.429 121.366 73.4357 121.366ZM86.0032 123.336C84.9699 123.336 84.1032 123.086 83.4032 122.586C82.7032 122.079 82.1732 121.396 81.8132 120.536C81.4532 119.676 81.2732 118.706 81.2732 117.626C81.2732 116.546 81.4499 115.576 81.8032 114.716C82.1632 113.856 82.6899 113.179 83.3832 112.686C84.0832 112.186 84.9432 111.936 85.9632 111.936C86.9765 111.936 87.8499 112.186 88.5832 112.686C89.3232 113.179 89.8932 113.856 90.2932 114.716C90.6932 115.569 90.8932 116.539 90.8932 117.626C90.8932 118.706 90.6932 119.679 90.2932 120.546C89.8999 121.406 89.3365 122.086 88.6032 122.586C87.8765 123.086 87.0099 123.336 86.0032 123.336ZM80.9232 127.836V112.236H82.7832V120.006H83.0232V127.836H80.9232ZM85.7132 121.446C86.3799 121.446 86.9299 121.276 87.3632 120.936C87.8032 120.596 88.1299 120.139 88.3432 119.566C88.5632 118.986 88.6732 118.339 88.6732 117.626C88.6732 116.919 88.5632 116.279 88.3432 115.706C88.1299 115.133 87.7999 114.676 87.3532 114.336C86.9065 113.996 86.3365 113.826 85.6432 113.826C84.9899 113.826 84.4499 113.986 84.0232 114.306C83.6032 114.626 83.2899 115.073 83.0832 115.646C82.8832 116.219 82.7832 116.879 82.7832 117.626C82.7832 118.373 82.8832 119.033 83.0832 119.606C83.2832 120.179 83.5999 120.629 84.0332 120.956C84.4665 121.283 85.0265 121.446 85.7132 121.446ZM106.041 123.036L106.051 116.306C106.051 115.526 105.851 114.919 105.451 114.486C105.051 114.046 104.525 113.826 103.871 113.826C103.471 113.826 103.105 113.919 102.771 114.106C102.445 114.286 102.178 114.559 101.971 114.926C101.771 115.286 101.671 115.739 101.671 116.286L100.661 115.776C100.648 115.016 100.808 114.349 101.141 113.776C101.481 113.203 101.941 112.759 102.521 112.446C103.101 112.126 103.751 111.966 104.471 111.966C105.638 111.966 106.541 112.316 107.181 113.016C107.821 113.716 108.141 114.646 108.141 115.806L108.131 123.036H106.041ZM93.0912 123.036V112.236H94.9512V115.356H95.1912V123.036H93.0912ZM99.5712 123.036L99.5812 116.346C99.5812 115.559 99.3812 114.943 98.9812 114.496C98.5878 114.049 98.0578 113.826 97.3912 113.826C96.7312 113.826 96.1978 114.053 95.7912 114.506C95.3912 114.959 95.1912 115.553 95.1912 116.286L94.1912 115.646C94.1912 114.939 94.3612 114.309 94.7012 113.756C95.0412 113.203 95.5012 112.766 96.0812 112.446C96.6612 112.126 97.3178 111.966 98.0512 111.966C98.8178 111.966 99.4712 112.129 100.011 112.456C100.551 112.776 100.961 113.226 101.241 113.806C101.528 114.386 101.671 115.059 101.671 115.826L101.661 123.036H99.5712ZM115.391 123.336C114.318 123.336 113.375 123.103 112.561 122.636C111.755 122.163 111.125 121.506 110.671 120.666C110.225 119.819 110.001 118.839 110.001 117.726C110.001 116.546 110.221 115.523 110.661 114.656C111.108 113.789 111.728 113.119 112.521 112.646C113.315 112.173 114.238 111.936 115.291 111.936C116.391 111.936 117.328 112.193 118.101 112.706C118.875 113.213 119.451 113.936 119.831 114.876C120.218 115.816 120.371 116.933 120.291 118.226H118.201V117.466C118.188 116.213 117.948 115.286 117.481 114.686C117.021 114.086 116.318 113.786 115.371 113.786C114.325 113.786 113.538 114.116 113.011 114.776C112.485 115.436 112.221 116.389 112.221 117.636C112.221 118.823 112.485 119.743 113.011 120.396C113.538 121.043 114.298 121.366 115.291 121.366C115.945 121.366 116.508 121.219 116.981 120.926C117.461 120.626 117.835 120.199 118.101 119.646L120.151 120.296C119.731 121.263 119.095 122.013 118.241 122.546C117.388 123.073 116.438 123.336 115.391 123.336ZM111.541 118.226V116.596H119.251V118.226H111.541ZM129.822 123.036V117.726C129.822 117.306 129.785 116.876 129.712 116.436C129.645 115.989 129.512 115.576 129.312 115.196C129.118 114.816 128.842 114.509 128.482 114.276C128.128 114.043 127.665 113.926 127.092 113.926C126.718 113.926 126.365 113.989 126.032 114.116C125.698 114.236 125.405 114.433 125.152 114.706C124.905 114.979 124.708 115.339 124.562 115.786C124.422 116.233 124.352 116.776 124.352 117.416L123.052 116.926C123.052 115.946 123.235 115.083 123.602 114.336C123.968 113.583 124.495 112.996 125.182 112.576C125.868 112.156 126.698 111.946 127.672 111.946C128.418 111.946 129.045 112.066 129.552 112.306C130.058 112.546 130.468 112.863 130.782 113.256C131.102 113.643 131.345 114.066 131.512 114.526C131.678 114.986 131.792 115.436 131.852 115.876C131.912 116.316 131.942 116.703 131.942 117.036V123.036H129.822ZM122.232 123.036V112.236H124.102V115.356H124.352V123.036H122.232ZM140.726 123.036C140.046 123.169 139.38 123.226 138.726 123.206C138.073 123.186 137.49 123.059 136.976 122.826C136.463 122.593 136.076 122.226 135.816 121.726C135.583 121.279 135.456 120.826 135.436 120.366C135.423 119.899 135.416 119.373 135.416 118.786V109.236H137.516V118.686C137.516 119.119 137.52 119.496 137.526 119.816C137.54 120.136 137.61 120.406 137.736 120.626C137.976 121.039 138.356 121.276 138.876 121.336C139.403 121.389 140.02 121.366 140.726 121.266V123.036ZM133.346 113.916V112.236H140.726V113.916H133.346Z" fill="#AEAEAE"/>
<rect x="11" y="10.0361" width="18" height="18" rx="3" stroke="#5C5C5C" stroke-width="2"/>
<rect x="0.5" y="0.536133" width="155" height="143" rx="9.5" stroke="#5C5C5C"/>
</svg>
