<svg width="156" height="145" viewBox="0 0 156 145" fill="none" xmlns="http://www.w3.org/2000/svg">
<g clip-path="url(#clip0_288_62)">
<path d="M70.7997 61.6368C74.7743 61.6368 78.0001 58.411 78.0001 54.4364V47.2361H70.7997C66.8251 47.2361 63.5994 50.4618 63.5994 54.4364C63.5994 58.411 66.8251 61.6368 70.7997 61.6368Z" fill="#0ACF83"/>
<path d="M63.5994 40.0365C63.5994 36.0619 66.8251 32.8362 70.7997 32.8362H78.0001V47.2369H70.7997C66.8251 47.2369 63.5994 44.0111 63.5994 40.0365Z" fill="#A259FF"/>
<path d="M63.5992 25.6354C63.5992 21.6608 66.825 18.4351 70.7996 18.4351H78V32.8358H70.7996C66.825 32.8358 63.5992 29.61 63.5992 25.6354Z" fill="#F24E1E"/>
<path d="M77.9999 18.4351H85.2002C89.1748 18.4351 92.4006 21.6608 92.4006 25.6354C92.4006 29.61 89.1748 32.8358 85.2002 32.8358H77.9999V18.4351Z" fill="#FF7262"/>
<path d="M92.4006 40.0365C92.4006 44.0111 89.1748 47.2369 85.2002 47.2369C81.2256 47.2369 77.9999 44.0111 77.9999 40.0365C77.9999 36.0619 81.2256 32.8362 85.2002 32.8362C89.1748 32.8362 92.4006 36.0619 92.4006 40.0365Z" fill="#1ABCFE"/>
</g>
<path d="M55.6478 92.9372C54.5211 92.9372 53.5245 92.7072 52.6578 92.2472C51.7978 91.7805 51.1245 91.1305 50.6378 90.2972C50.1511 89.4572 49.9078 88.4705 49.9078 87.3372V78.2472L52.0278 78.2372V87.2272C52.0278 87.8405 52.1311 88.3805 52.3378 88.8472C52.5445 89.3139 52.8211 89.7039 53.1678 90.0172C53.5145 90.3305 53.9011 90.5672 54.3278 90.7272C54.7611 90.8872 55.2011 90.9672 55.6478 90.9672C56.1011 90.9672 56.5411 90.8872 56.9678 90.7272C57.4011 90.5605 57.7911 90.3205 58.1378 90.0072C58.4845 89.6939 58.7578 89.3039 58.9578 88.8372C59.1645 88.3705 59.2678 87.8339 59.2678 87.2272V78.2372H61.3878V87.3372C61.3878 88.4639 61.1445 89.4472 60.6578 90.2872C60.1711 91.1272 59.4945 91.7805 58.6278 92.2472C57.7678 92.7072 56.7745 92.9372 55.6478 92.9372ZM64.3852 92.6372V78.2372H66.4752V92.6372H64.3852ZM77.122 78.2372H79.232L75.392 92.6372H73.282L77.122 78.2372ZM87.5814 92.9372C86.4547 92.9372 85.4581 92.7072 84.5914 92.2472C83.7314 91.7805 83.0581 91.1305 82.5714 90.2972C82.0847 89.4572 81.8414 88.4705 81.8414 87.3372V78.2472L83.9614 78.2372V87.2272C83.9614 87.8405 84.0647 88.3805 84.2714 88.8472C84.4781 89.3139 84.7547 89.7039 85.1014 90.0172C85.4481 90.3305 85.8347 90.5672 86.2614 90.7272C86.6947 90.8872 87.1347 90.9672 87.5814 90.9672C88.0347 90.9672 88.4747 90.8872 88.9014 90.7272C89.3347 90.5605 89.7247 90.3205 90.0714 90.0072C90.4181 89.6939 90.6914 89.3039 90.8914 88.8372C91.0981 88.3705 91.2014 87.8339 91.2014 87.2272V78.2372H93.3214V87.3372C93.3214 88.4639 93.0781 89.4472 92.5914 90.2872C92.1047 91.1272 91.4281 91.7805 90.5614 92.2472C89.7014 92.7072 88.7081 92.9372 87.5814 92.9372ZM94.9188 92.6372L99.8288 85.3472L95.0487 78.2372H97.6088L101.119 83.5772L104.609 78.2372H107.179L102.399 85.3472L107.299 92.6372H104.739L101.119 87.1272L97.4888 92.6372H94.9188ZM46.2848 119.637V105.237H50.7948C50.9281 105.237 51.1748 105.241 51.5348 105.247C51.9014 105.254 52.2514 105.281 52.5848 105.327C53.7114 105.467 54.6581 105.871 55.4248 106.537C56.1981 107.204 56.7814 108.051 57.1748 109.077C57.5681 110.097 57.7648 111.217 57.7648 112.437C57.7648 113.664 57.5681 114.791 57.1748 115.817C56.7814 116.837 56.1981 117.681 55.4248 118.347C54.6581 119.007 53.7114 119.407 52.5848 119.547C52.2514 119.594 51.9014 119.621 51.5348 119.627C51.1748 119.634 50.9281 119.637 50.7948 119.637H46.2848ZM48.4248 117.647H50.7948C51.0214 117.647 51.2914 117.641 51.6048 117.627C51.9181 117.614 52.1948 117.587 52.4348 117.547C53.1681 117.407 53.7614 117.091 54.2148 116.597C54.6748 116.097 55.0114 115.484 55.2248 114.757C55.4381 114.031 55.5448 113.257 55.5448 112.437C55.5448 111.591 55.4348 110.807 55.2148 110.087C54.9948 109.361 54.6548 108.754 54.1948 108.267C53.7414 107.774 53.1548 107.461 52.4348 107.327C52.1948 107.281 51.9148 107.254 51.5948 107.247C51.2814 107.234 51.0148 107.227 50.7948 107.227H48.4248V117.647ZM64.8834 119.937C63.81 119.937 62.8667 119.704 62.0534 119.237C61.2467 118.764 60.6167 118.107 60.1634 117.267C59.7167 116.421 59.4934 115.441 59.4934 114.327C59.4934 113.147 59.7134 112.124 60.1534 111.257C60.6 110.391 61.22 109.721 62.0134 109.247C62.8067 108.774 63.73 108.537 64.7834 108.537C65.8834 108.537 66.82 108.794 67.5934 109.307C68.3667 109.814 68.9434 110.537 69.3234 111.477C69.71 112.417 69.8634 113.534 69.7834 114.827H67.6934V114.067C67.68 112.814 67.44 111.887 66.9734 111.287C66.5134 110.687 65.81 110.387 64.8634 110.387C63.8167 110.387 63.03 110.717 62.5034 111.377C61.9767 112.037 61.7134 112.991 61.7134 114.237C61.7134 115.424 61.9767 116.344 62.5034 116.997C63.03 117.644 63.79 117.967 64.7834 117.967C65.4367 117.967 66 117.821 66.4734 117.527C66.9534 117.227 67.3267 116.801 67.5934 116.247L69.6434 116.897C69.2234 117.864 68.5867 118.614 67.7334 119.147C66.88 119.674 65.93 119.937 64.8834 119.937ZM61.0334 114.827V113.197H68.7434V114.827H61.0334ZM76.157 119.927C74.8436 119.927 73.7736 119.637 72.947 119.057C72.1203 118.477 71.6136 117.661 71.427 116.607L73.567 116.277C73.7003 116.837 74.007 117.281 74.487 117.607C74.9736 117.927 75.577 118.087 76.297 118.087C76.9503 118.087 77.4603 117.954 77.827 117.687C78.2003 117.421 78.387 117.054 78.387 116.587C78.387 116.314 78.3203 116.094 78.187 115.927C78.0603 115.754 77.7903 115.591 77.377 115.437C76.9636 115.284 76.3336 115.094 75.487 114.867C74.5603 114.627 73.8236 114.371 73.277 114.097C72.737 113.817 72.3503 113.494 72.117 113.127C71.8903 112.754 71.777 112.304 71.777 111.777C71.777 111.124 71.9503 110.554 72.297 110.067C72.6436 109.581 73.1303 109.204 73.757 108.937C74.3903 108.671 75.1303 108.537 75.977 108.537C76.8036 108.537 77.5403 108.667 78.187 108.927C78.8336 109.187 79.357 109.557 79.757 110.037C80.157 110.511 80.397 111.067 80.477 111.707L78.337 112.097C78.2636 111.577 78.0203 111.167 77.607 110.867C77.1936 110.567 76.657 110.404 75.997 110.377C75.3636 110.351 74.8503 110.457 74.457 110.697C74.0636 110.931 73.867 111.254 73.867 111.667C73.867 111.907 73.9403 112.111 74.087 112.277C74.2403 112.444 74.5336 112.604 74.967 112.757C75.4003 112.911 76.0403 113.094 76.887 113.307C77.7936 113.541 78.5136 113.801 79.047 114.087C79.5803 114.367 79.9603 114.704 80.187 115.097C80.4203 115.484 80.537 115.954 80.537 116.507C80.537 117.574 80.147 118.411 79.367 119.017C78.5936 119.624 77.5236 119.927 76.157 119.927ZM82.9496 107.067V105.037H85.0396V107.067H82.9496ZM82.9496 119.637V108.837H85.0396V119.637H82.9496ZM92.4926 124.737C91.9126 124.737 91.3492 124.647 90.8026 124.467C90.2626 124.287 89.7692 124.021 89.3226 123.667C88.8759 123.321 88.5059 122.891 88.2126 122.377L90.1426 121.397C90.3759 121.857 90.7092 122.194 91.1426 122.407C91.5759 122.621 92.0326 122.727 92.5126 122.727C93.1059 122.727 93.6126 122.621 94.0326 122.407C94.4526 122.201 94.7692 121.887 94.9826 121.467C95.2026 121.047 95.3092 120.527 95.3026 119.907V116.887H95.5526V108.837H97.4026V119.927C97.4026 120.214 97.3926 120.487 97.3726 120.747C97.3526 121.007 97.3159 121.267 97.2626 121.527C97.1092 122.254 96.8159 122.854 96.3826 123.327C95.9559 123.801 95.4092 124.154 94.7426 124.387C94.0826 124.621 93.3326 124.737 92.4926 124.737ZM92.3326 119.937C91.3259 119.937 90.4559 119.687 89.7226 119.187C88.9959 118.687 88.4326 118.007 88.0326 117.147C87.6392 116.281 87.4426 115.307 87.4426 114.227C87.4426 113.141 87.6426 112.171 88.0426 111.317C88.4426 110.457 89.0092 109.781 89.7426 109.287C90.4826 108.787 91.3592 108.537 92.3726 108.537C93.3926 108.537 94.2492 108.787 94.9426 109.287C95.6426 109.781 96.1692 110.457 96.5226 111.317C96.8826 112.177 97.0626 113.147 97.0626 114.227C97.0626 115.307 96.8826 116.277 96.5226 117.137C96.1626 117.997 95.6326 118.681 94.9326 119.187C94.2326 119.687 93.3659 119.937 92.3326 119.937ZM92.6226 118.047C93.3092 118.047 93.8692 117.884 94.3026 117.557C94.7359 117.231 95.0526 116.781 95.2526 116.207C95.4526 115.634 95.5526 114.974 95.5526 114.227C95.5526 113.481 95.4492 112.821 95.2426 112.247C95.0426 111.674 94.7292 111.227 94.3026 110.907C93.8826 110.587 93.3459 110.427 92.6926 110.427C91.9992 110.427 91.4292 110.597 90.9826 110.937C90.5359 111.277 90.2026 111.734 89.9826 112.307C89.7692 112.881 89.6626 113.521 89.6626 114.227C89.6626 114.941 89.7692 115.587 89.9826 116.167C90.2026 116.741 90.5292 117.197 90.9626 117.537C91.4026 117.877 91.9559 118.047 92.6226 118.047ZM107.791 119.637V114.327C107.791 113.907 107.754 113.477 107.681 113.037C107.614 112.591 107.481 112.177 107.281 111.797C107.087 111.417 106.811 111.111 106.451 110.877C106.097 110.644 105.634 110.527 105.061 110.527C104.687 110.527 104.334 110.591 104.001 110.717C103.667 110.837 103.374 111.034 103.121 111.307C102.874 111.581 102.677 111.941 102.531 112.387C102.391 112.834 102.321 113.377 102.321 114.017L101.021 113.527C101.021 112.547 101.204 111.684 101.571 110.937C101.937 110.184 102.464 109.597 103.151 109.177C103.837 108.757 104.667 108.547 105.641 108.547C106.387 108.547 107.014 108.667 107.521 108.907C108.027 109.147 108.437 109.464 108.751 109.857C109.071 110.244 109.314 110.667 109.481 111.127C109.647 111.587 109.761 112.037 109.821 112.477C109.881 112.917 109.911 113.304 109.911 113.637V119.637H107.791ZM100.201 119.637V108.837H102.071V111.957H102.321V119.637H100.201Z" fill="#AEAEAE"/>
<rect x="11" y="10.0361" width="18" height="18" rx="3" stroke="#5C5C5C" stroke-width="2"/>
<rect x="0.5" y="0.536133" width="155" height="143" rx="9.5" stroke="#5C5C5C"/>
<defs>
<clipPath id="clip0_288_62">
<rect width="28.8125" height="43.2021" fill="white" transform="translate(63.5938 18.4351)"/>
</clipPath>
</defs>
</svg>
