<svg width="290" height="243" viewBox="0 0 290 243" fill="none" xmlns="http://www.w3.org/2000/svg">
<path d="M62.5 196.597C51.7992 196.597 42.6847 193.685 35.1562 187.861C27.6278 181.99 21.875 173.491 17.8977 162.364C13.9205 151.19 11.9318 137.696 11.9318 121.881C11.9318 106.161 13.9205 92.7381 17.8977 81.6112C21.9223 70.437 27.6989 61.9143 35.2273 56.043C42.803 50.1245 51.8939 47.1652 62.5 47.1652C73.1061 47.1652 82.1733 50.1245 89.7017 56.043C97.2775 61.9143 103.054 70.437 107.031 81.6112C111.056 92.7381 113.068 106.161 113.068 121.881C113.068 137.696 111.08 151.19 107.102 162.364C103.125 173.491 97.3722 181.99 89.8438 187.861C82.3153 193.685 73.2008 196.597 62.5 196.597ZM62.5 180.972C73.1061 180.972 81.3447 175.858 87.2159 165.631C93.0871 155.404 96.0227 140.821 96.0227 121.881C96.0227 109.286 94.6733 98.562 91.9744 89.7078C89.3229 80.8537 85.4877 74.1065 80.4688 69.4663C75.4972 64.8262 69.5076 62.5061 62.5 62.5061C51.9886 62.5061 43.7737 67.6908 37.8551 78.0601C31.9366 88.3821 28.9773 102.989 28.9773 121.881C28.9773 134.476 30.303 145.177 32.9545 153.983C35.6061 162.79 39.4176 169.49 44.3892 174.083C49.4081 178.676 55.4451 180.972 62.5 180.972ZM189.205 196.597C179.83 196.597 171.473 194.987 164.134 191.767C156.842 188.548 151.042 184.073 146.733 178.344C142.472 172.568 140.152 165.868 139.773 158.245H157.67C158.049 162.932 159.659 166.981 162.5 170.39C165.341 173.751 169.058 176.356 173.651 178.202C178.243 180.049 183.333 180.972 188.92 180.972C195.17 180.972 200.71 179.883 205.54 177.705C210.369 175.527 214.157 172.497 216.903 168.614C219.65 164.732 221.023 160.233 221.023 155.12C221.023 149.769 219.697 145.058 217.045 140.986C214.394 136.867 210.511 133.647 205.398 131.327C200.284 129.007 194.034 127.847 186.648 127.847H175V112.222H186.648C192.424 112.222 197.491 111.18 201.847 109.097C206.25 107.014 209.683 104.078 212.145 100.29C214.654 96.5023 215.909 92.0516 215.909 86.9379C215.909 82.0137 214.82 77.7287 212.642 74.0828C210.464 70.437 207.386 67.5961 203.409 65.5601C199.479 63.5241 194.839 62.5061 189.489 62.5061C184.47 62.5061 179.735 63.4294 175.284 65.276C170.881 67.0753 167.282 69.7031 164.489 73.1595C161.695 76.5686 160.18 80.6879 159.943 85.5175H142.898C143.182 77.8944 145.478 71.2182 149.787 65.4891C154.096 59.7126 159.73 55.2145 166.69 51.9948C173.698 48.7751 181.392 47.1652 189.773 47.1652C198.769 47.1652 206.487 48.9881 212.926 52.634C219.366 56.2324 224.313 60.991 227.77 66.9095C231.226 72.8281 232.955 79.2201 232.955 86.0857C232.955 94.277 230.8 101.261 226.491 107.037C222.23 112.814 216.43 116.815 209.091 119.04V120.177C218.277 121.692 225.45 125.598 230.611 131.895C235.772 138.145 238.352 145.887 238.352 155.12C238.352 163.027 236.198 170.129 231.889 176.427C227.628 182.677 221.804 187.601 214.418 191.199C207.031 194.798 198.627 196.597 189.205 196.597ZM282.457 49.1538V61.9379C282.457 65.8205 281.747 69.9635 280.327 74.3669C278.954 78.723 276.918 82.9607 274.219 87.08C271.567 91.152 268.348 94.7031 264.56 97.7334L255.469 90.347C258.452 86.0857 261.032 81.6586 263.21 77.0658C265.436 72.4256 266.548 67.4777 266.548 62.222V49.1538H282.457Z" fill="#343434" fill-opacity="0.5"/>
</svg>
