<svg width="156" height="145" viewBox="0 0 156 145" fill="none" xmlns="http://www.w3.org/2000/svg">
<path d="M85.7437 20.1831C85.8041 19.9869 85.8252 19.7808 85.8058 19.5765C85.7865 19.3721 85.7271 19.1736 85.6311 18.9923C85.535 18.8109 85.4042 18.6502 85.246 18.5194C85.0879 18.3886 84.9055 18.2903 84.7094 18.2299C84.5132 18.1696 84.3071 18.1485 84.1028 18.1678C83.8984 18.1872 83.6999 18.2466 83.5186 18.3426C83.3372 18.4387 83.1765 18.5695 83.0457 18.7276C82.9149 18.8858 82.8166 19.0681 82.7562 19.2643L70.2562 59.8893C70.1344 60.2855 70.1749 60.7138 70.3689 61.0801C70.5629 61.4464 70.8944 61.7206 71.2906 61.8424C71.6868 61.9643 72.1151 61.9237 72.4814 61.7297C72.8477 61.5358 73.1219 61.2042 73.2437 60.8081L85.7437 20.1831ZM68.1687 27.9924C68.3142 28.1376 68.4297 28.31 68.5085 28.4998C68.5872 28.6897 68.6278 28.8932 68.6278 29.0987C68.6278 29.3042 68.5872 29.5077 68.5085 29.6975C68.4297 29.8874 68.3142 30.0598 68.1687 30.2049L58.3344 40.0362L68.1687 49.8674C68.4621 50.1608 68.627 50.5588 68.627 50.9737C68.627 51.3886 68.4621 51.7865 68.1687 52.0799C67.8753 52.3733 67.4774 52.5382 67.0625 52.5382C66.6476 52.5382 66.2496 52.3733 65.9562 52.0799L55.0187 41.1424C54.8732 40.9973 54.7578 40.8249 54.679 40.635C54.6002 40.4452 54.5597 40.2417 54.5597 40.0362C54.5597 39.8307 54.6002 39.6272 54.679 39.4373C54.7578 39.2475 54.8732 39.0751 55.0187 38.9299L65.9562 27.9924C66.1014 27.8469 66.2738 27.7315 66.4636 27.6527C66.6535 27.5739 66.857 27.5334 67.0625 27.5334C67.268 27.5334 67.4715 27.5739 67.6613 27.6527C67.8512 27.7315 68.0236 27.8469 68.1687 27.9924ZM87.8312 27.9924C87.6857 28.1376 87.5703 28.31 87.4915 28.4998C87.4127 28.6897 87.3722 28.8932 87.3722 29.0987C87.3722 29.3042 87.4127 29.5077 87.4915 29.6975C87.5703 29.8874 87.6857 30.0598 87.8312 30.2049L97.6656 40.0362L87.8312 49.8674C87.686 50.0127 87.5707 50.1852 87.4921 50.375C87.4135 50.5648 87.373 50.7682 87.373 50.9737C87.373 51.1791 87.4135 51.3826 87.4921 51.5724C87.5707 51.7622 87.686 51.9347 87.8312 52.0799C87.9765 52.2252 88.149 52.3404 88.3388 52.4191C88.5286 52.4977 88.732 52.5382 88.9375 52.5382C89.1429 52.5382 89.3464 52.4977 89.5362 52.4191C89.726 52.3404 89.8985 52.2252 90.0437 52.0799L100.981 41.1424C101.127 40.9973 101.242 40.8249 101.321 40.635C101.4 40.4452 101.44 40.2417 101.44 40.0362C101.44 39.8307 101.4 39.6272 101.321 39.4373C101.242 39.2475 101.127 39.0751 100.981 38.9299L90.0437 27.9924C89.8986 27.8469 89.7262 27.7315 89.5363 27.6527C89.3465 27.5739 89.143 27.5334 88.9375 27.5334C88.732 27.5334 88.5285 27.5739 88.3386 27.6527C88.1488 27.7315 87.9764 27.8469 87.8312 27.9924Z" fill="#3A39F7"/>
<path d="M61.366 96.0361L57.186 81.6361H59.376L62.406 92.5261L65.436 81.6461L67.636 81.6361L70.666 92.5261L73.696 81.6361H75.896L71.706 96.0361H69.626L66.536 85.2661L63.446 96.0361H61.366ZM81.1724 96.3361C80.0991 96.3361 79.1558 96.1028 78.3424 95.6361C77.5358 95.1628 76.9058 94.5061 76.4524 93.6661C76.0058 92.8195 75.7824 91.8395 75.7824 90.7261C75.7824 89.5461 76.0024 88.5228 76.4424 87.6561C76.8891 86.7895 77.5091 86.1195 78.3024 85.6461C79.0958 85.1728 80.0191 84.9361 81.0724 84.9361C82.1724 84.9361 83.1091 85.1928 83.8824 85.7061C84.6558 86.2128 85.2324 86.9361 85.6124 87.8761C85.9991 88.8161 86.1524 89.9328 86.0724 91.2261H83.9824V90.4661C83.9691 89.2128 83.7291 88.2861 83.2624 87.6861C82.8024 87.0861 82.0991 86.7861 81.1524 86.7861C80.1058 86.7861 79.3191 87.1161 78.7924 87.7761C78.2658 88.4361 78.0024 89.3895 78.0024 90.6361C78.0024 91.8228 78.2658 92.7428 78.7924 93.3961C79.3191 94.0428 80.0791 94.3661 81.0724 94.3661C81.7258 94.3661 82.2891 94.2195 82.7624 93.9261C83.2424 93.6261 83.6158 93.1995 83.8824 92.6461L85.9324 93.2961C85.5124 94.2628 84.8758 95.0128 84.0224 95.5461C83.1691 96.0728 82.2191 96.3361 81.1724 96.3361ZM77.3224 91.2261V89.5961H85.0324V91.2261H77.3224ZM93.386 96.3361C92.3527 96.3361 91.486 96.0861 90.786 95.5861C90.086 95.0795 89.556 94.3961 89.196 93.5361C88.836 92.6761 88.656 91.7061 88.656 90.6261C88.656 89.5461 88.8327 88.5761 89.186 87.7161C89.546 86.8561 90.0727 86.1795 90.766 85.6861C91.466 85.1861 92.326 84.9361 93.346 84.9361C94.3593 84.9361 95.2327 85.1861 95.966 85.6861C96.706 86.1795 97.276 86.8561 97.676 87.7161C98.076 88.5695 98.276 89.5395 98.276 90.6261C98.276 91.7061 98.076 92.6795 97.676 93.5461C97.2827 94.4061 96.7193 95.0861 95.986 95.5861C95.2593 96.0861 94.3927 96.3361 93.386 96.3361ZM88.306 96.0361V81.6361H90.406V88.2661H90.166V96.0361H88.306ZM93.096 94.4461C93.7627 94.4461 94.3127 94.2761 94.746 93.9361C95.186 93.5961 95.5127 93.1395 95.726 92.5661C95.946 91.9861 96.056 91.3395 96.056 90.6261C96.056 89.9195 95.946 89.2795 95.726 88.7061C95.5127 88.1328 95.1827 87.6761 94.736 87.3361C94.2893 86.9961 93.7193 86.8261 93.026 86.8261C92.3727 86.8261 91.8327 86.9861 91.406 87.3061C90.986 87.6261 90.6727 88.0728 90.466 88.6461C90.266 89.2195 90.166 89.8795 90.166 90.6261C90.166 91.3728 90.266 92.0328 90.466 92.6061C90.666 93.1795 90.9827 93.6295 91.416 93.9561C91.8493 94.2828 92.4093 94.4461 93.096 94.4461ZM15.7965 123.036V108.636H20.3065C20.4398 108.636 20.6865 108.639 21.0465 108.646C21.4132 108.653 21.7632 108.679 22.0965 108.726C23.2232 108.866 24.1698 109.269 24.9365 109.936C25.7098 110.603 26.2932 111.449 26.6865 112.476C27.0798 113.496 27.2765 114.616 27.2765 115.836C27.2765 117.063 27.0798 118.189 26.6865 119.216C26.2932 120.236 25.7098 121.079 24.9365 121.746C24.1698 122.406 23.2232 122.806 22.0965 122.946C21.7632 122.993 21.4132 123.019 21.0465 123.026C20.6865 123.033 20.4398 123.036 20.3065 123.036H15.7965ZM17.9365 121.046H20.3065C20.5332 121.046 20.8032 121.039 21.1165 121.026C21.4298 121.013 21.7065 120.986 21.9465 120.946C22.6798 120.806 23.2732 120.489 23.7265 119.996C24.1865 119.496 24.5232 118.883 24.7365 118.156C24.9498 117.429 25.0565 116.656 25.0565 115.836C25.0565 114.989 24.9465 114.206 24.7265 113.486C24.5065 112.759 24.1665 112.153 23.7065 111.666C23.2532 111.173 22.6665 110.859 21.9465 110.726C21.7065 110.679 21.4265 110.653 21.1065 110.646C20.7932 110.633 20.5265 110.626 20.3065 110.626H17.9365V121.046ZM34.3951 123.336C33.3217 123.336 32.3784 123.103 31.5651 122.636C30.7584 122.163 30.1284 121.506 29.6751 120.666C29.2284 119.819 29.0051 118.839 29.0051 117.726C29.0051 116.546 29.2251 115.523 29.6651 114.656C30.1117 113.789 30.7317 113.119 31.5251 112.646C32.3184 112.173 33.2417 111.936 34.2951 111.936C35.3951 111.936 36.3317 112.193 37.1051 112.706C37.8784 113.213 38.4551 113.936 38.8351 114.876C39.2217 115.816 39.3751 116.933 39.2951 118.226H37.2051V117.466C37.1917 116.213 36.9517 115.286 36.4851 114.686C36.0251 114.086 35.3217 113.786 34.3751 113.786C33.3284 113.786 32.5417 114.116 32.0151 114.776C31.4884 115.436 31.2251 116.389 31.2251 117.636C31.2251 118.823 31.4884 119.743 32.0151 120.396C32.5417 121.043 33.3017 121.366 34.2951 121.366C34.9484 121.366 35.5117 121.219 35.9851 120.926C36.4651 120.626 36.8384 120.199 37.1051 119.646L39.1551 120.296C38.7351 121.263 38.0984 122.013 37.2451 122.546C36.3917 123.073 35.4417 123.336 34.3951 123.336ZM30.5451 118.226V116.596H38.2551V118.226H30.5451ZM44.068 123.036L40.148 112.236H42.258L45.128 120.416L47.998 112.236H50.108L46.188 123.036H44.068ZM56.3091 123.336C55.2358 123.336 54.2925 123.103 53.4791 122.636C52.6725 122.163 52.0425 121.506 51.5891 120.666C51.1425 119.819 50.9191 118.839 50.9191 117.726C50.9191 116.546 51.1391 115.523 51.5791 114.656C52.0258 113.789 52.6458 113.119 53.4391 112.646C54.2325 112.173 55.1558 111.936 56.2091 111.936C57.3091 111.936 58.2458 112.193 59.0191 112.706C59.7925 113.213 60.3691 113.936 60.7491 114.876C61.1358 115.816 61.2891 116.933 61.2091 118.226H59.1191V117.466C59.1058 116.213 58.8658 115.286 58.3991 114.686C57.9391 114.086 57.2358 113.786 56.2891 113.786C55.2425 113.786 54.4558 114.116 53.9291 114.776C53.4025 115.436 53.1391 116.389 53.1391 117.636C53.1391 118.823 53.4025 119.743 53.9291 120.396C54.4558 121.043 55.2158 121.366 56.2091 121.366C56.8625 121.366 57.4258 121.219 57.8991 120.926C58.3791 120.626 58.7525 120.199 59.0191 119.646L61.0691 120.296C60.6491 121.263 60.0125 122.013 59.1591 122.546C58.3058 123.073 57.3558 123.336 56.3091 123.336ZM52.4591 118.226V116.596H60.1691V118.226H52.4591ZM63.6527 123.036V108.336H65.7427V123.036H63.6527ZM73.4357 123.336C72.3557 123.336 71.419 123.093 70.6257 122.606C69.8324 122.119 69.219 121.449 68.7857 120.596C68.359 119.736 68.1457 118.746 68.1457 117.626C68.1457 116.499 68.3657 115.509 68.8057 114.656C69.2457 113.796 69.8624 113.129 70.6557 112.656C71.449 112.176 72.3757 111.936 73.4357 111.936C74.5157 111.936 75.4524 112.179 76.2457 112.666C77.039 113.153 77.6524 113.823 78.0857 114.676C78.519 115.529 78.7357 116.513 78.7357 117.626C78.7357 118.753 78.5157 119.746 78.0757 120.606C77.6424 121.459 77.029 122.129 76.2357 122.616C75.4424 123.096 74.509 123.336 73.4357 123.336ZM73.4357 121.366C74.469 121.366 75.239 121.019 75.7457 120.326C76.259 119.626 76.5157 118.726 76.5157 117.626C76.5157 116.499 76.2557 115.599 75.7357 114.926C75.2224 114.246 74.4557 113.906 73.4357 113.906C72.7357 113.906 72.159 114.066 71.7057 114.386C71.2524 114.699 70.9157 115.136 70.6957 115.696C70.4757 116.249 70.3657 116.893 70.3657 117.626C70.3657 118.759 70.6257 119.666 71.1457 120.346C71.6657 121.026 72.429 121.366 73.4357 121.366ZM86.0032 123.336C84.9699 123.336 84.1032 123.086 83.4032 122.586C82.7032 122.079 82.1732 121.396 81.8132 120.536C81.4532 119.676 81.2732 118.706 81.2732 117.626C81.2732 116.546 81.4499 115.576 81.8032 114.716C82.1632 113.856 82.6899 113.179 83.3832 112.686C84.0832 112.186 84.9432 111.936 85.9632 111.936C86.9765 111.936 87.8499 112.186 88.5832 112.686C89.3232 113.179 89.8932 113.856 90.2932 114.716C90.6932 115.569 90.8932 116.539 90.8932 117.626C90.8932 118.706 90.6932 119.679 90.2932 120.546C89.8999 121.406 89.3365 122.086 88.6032 122.586C87.8765 123.086 87.0099 123.336 86.0032 123.336ZM80.9232 127.836V112.236H82.7832V120.006H83.0232V127.836H80.9232ZM85.7132 121.446C86.3799 121.446 86.9299 121.276 87.3632 120.936C87.8032 120.596 88.1299 120.139 88.3432 119.566C88.5632 118.986 88.6732 118.339 88.6732 117.626C88.6732 116.919 88.5632 116.279 88.3432 115.706C88.1299 115.133 87.7999 114.676 87.3532 114.336C86.9065 113.996 86.3365 113.826 85.6432 113.826C84.9899 113.826 84.4499 113.986 84.0232 114.306C83.6032 114.626 83.2899 115.073 83.0832 115.646C82.8832 116.219 82.7832 116.879 82.7832 117.626C82.7832 118.373 82.8832 119.033 83.0832 119.606C83.2832 120.179 83.5999 120.629 84.0332 120.956C84.4665 121.283 85.0265 121.446 85.7132 121.446ZM106.041 123.036L106.051 116.306C106.051 115.526 105.851 114.919 105.451 114.486C105.051 114.046 104.525 113.826 103.871 113.826C103.471 113.826 103.105 113.919 102.771 114.106C102.445 114.286 102.178 114.559 101.971 114.926C101.771 115.286 101.671 115.739 101.671 116.286L100.661 115.776C100.648 115.016 100.808 114.349 101.141 113.776C101.481 113.203 101.941 112.759 102.521 112.446C103.101 112.126 103.751 111.966 104.471 111.966C105.638 111.966 106.541 112.316 107.181 113.016C107.821 113.716 108.141 114.646 108.141 115.806L108.131 123.036H106.041ZM93.0912 123.036V112.236H94.9512V115.356H95.1912V123.036H93.0912ZM99.5712 123.036L99.5812 116.346C99.5812 115.559 99.3812 114.943 98.9812 114.496C98.5878 114.049 98.0578 113.826 97.3912 113.826C96.7312 113.826 96.1978 114.053 95.7912 114.506C95.3912 114.959 95.1912 115.553 95.1912 116.286L94.1912 115.646C94.1912 114.939 94.3612 114.309 94.7012 113.756C95.0412 113.203 95.5012 112.766 96.0812 112.446C96.6612 112.126 97.3178 111.966 98.0512 111.966C98.8178 111.966 99.4712 112.129 100.011 112.456C100.551 112.776 100.961 113.226 101.241 113.806C101.528 114.386 101.671 115.059 101.671 115.826L101.661 123.036H99.5712ZM115.391 123.336C114.318 123.336 113.375 123.103 112.561 122.636C111.755 122.163 111.125 121.506 110.671 120.666C110.225 119.819 110.001 118.839 110.001 117.726C110.001 116.546 110.221 115.523 110.661 114.656C111.108 113.789 111.728 113.119 112.521 112.646C113.315 112.173 114.238 111.936 115.291 111.936C116.391 111.936 117.328 112.193 118.101 112.706C118.875 113.213 119.451 113.936 119.831 114.876C120.218 115.816 120.371 116.933 120.291 118.226H118.201V117.466C118.188 116.213 117.948 115.286 117.481 114.686C117.021 114.086 116.318 113.786 115.371 113.786C114.325 113.786 113.538 114.116 113.011 114.776C112.485 115.436 112.221 116.389 112.221 117.636C112.221 118.823 112.485 119.743 113.011 120.396C113.538 121.043 114.298 121.366 115.291 121.366C115.945 121.366 116.508 121.219 116.981 120.926C117.461 120.626 117.835 120.199 118.101 119.646L120.151 120.296C119.731 121.263 119.095 122.013 118.241 122.546C117.388 123.073 116.438 123.336 115.391 123.336ZM111.541 118.226V116.596H119.251V118.226H111.541ZM129.822 123.036V117.726C129.822 117.306 129.785 116.876 129.712 116.436C129.645 115.989 129.512 115.576 129.312 115.196C129.118 114.816 128.842 114.509 128.482 114.276C128.128 114.043 127.665 113.926 127.092 113.926C126.718 113.926 126.365 113.989 126.032 114.116C125.698 114.236 125.405 114.433 125.152 114.706C124.905 114.979 124.708 115.339 124.562 115.786C124.422 116.233 124.352 116.776 124.352 117.416L123.052 116.926C123.052 115.946 123.235 115.083 123.602 114.336C123.968 113.583 124.495 112.996 125.182 112.576C125.868 112.156 126.698 111.946 127.672 111.946C128.418 111.946 129.045 112.066 129.552 112.306C130.058 112.546 130.468 112.863 130.782 113.256C131.102 113.643 131.345 114.066 131.512 114.526C131.678 114.986 131.792 115.436 131.852 115.876C131.912 116.316 131.942 116.703 131.942 117.036V123.036H129.822ZM122.232 123.036V112.236H124.102V115.356H124.352V123.036H122.232ZM140.726 123.036C140.046 123.169 139.38 123.226 138.726 123.206C138.073 123.186 137.49 123.059 136.976 122.826C136.463 122.593 136.076 122.226 135.816 121.726C135.583 121.279 135.456 120.826 135.436 120.366C135.423 119.899 135.416 119.373 135.416 118.786V109.236H137.516V118.686C137.516 119.119 137.52 119.496 137.526 119.816C137.54 120.136 137.61 120.406 137.736 120.626C137.976 121.039 138.356 121.276 138.876 121.336C139.403 121.389 140.02 121.366 140.726 121.266V123.036ZM133.346 113.916V112.236H140.726V113.916H133.346Z" fill="#AEAEAE"/>
<rect x="11" y="10.0361" width="18" height="18" rx="3" stroke="#5C5C5C" stroke-width="2"/>
<rect x="0.5" y="0.536133" width="155" height="143" rx="9.5" stroke="#5C5C5C"/>
</svg>
