<svg width="156" height="145" viewBox="0 0 156 145" fill="none" xmlns="http://www.w3.org/2000/svg">
<path d="M64.6147 19.357C64.8799 19.4845 65.1037 19.6844 65.2604 19.9335C65.417 20.1827 65.5001 20.471 65.5001 20.7653C65.5001 22.4945 66.1501 23.4903 66.9647 24.7028L67.0251 24.7903C67.7168 25.8195 68.6251 27.1674 68.6251 29.0987C68.6251 31.0695 67.6313 32.807 66.1168 33.8382C66.5147 34.1716 66.8668 34.582 67.1709 35.0737C68.1626 36.6778 68.6251 39.1299 68.6251 42.6507C68.6251 46.2174 68.1459 50.5007 67.3647 53.9216C66.9772 55.6216 66.4959 57.1903 65.923 58.3674C65.6525 58.9531 65.2942 59.494 64.8605 59.9716C64.4313 60.4112 63.7709 60.8799 62.8959 60.8799C62.0209 60.8799 61.3605 60.4112 60.9334 59.9716C60.4984 59.495 60.14 58.9538 59.8709 58.3674C59.2959 57.1882 58.8147 55.6216 58.4272 53.9195C57.6146 50.2169 57.1921 46.4393 57.1668 42.6486C57.1668 39.1278 57.6292 36.6778 58.6209 35.0737C58.9038 34.608 59.2598 34.1909 59.6751 33.8382C58.9017 33.3132 58.2687 32.6066 57.8314 31.7804C57.3942 30.9542 57.166 30.0334 57.1668 29.0987C57.1668 28.332 57.1667 27.0132 57.9647 25.3112C58.7459 23.6445 60.2313 21.7299 62.9605 19.5445C63.1905 19.3605 63.4679 19.2453 63.7605 19.2121C64.0532 19.1789 64.3493 19.2291 64.6147 19.357ZM60.2918 29.0966V29.0987C60.2918 29.7893 60.5661 30.4517 61.0545 30.9401C61.5429 31.4285 62.2052 31.7028 62.8959 31.7028C63.5866 31.7028 64.249 31.4285 64.7373 30.9401C65.2257 30.4517 65.5001 29.7893 65.5001 29.0987C65.5001 28.1841 65.1147 27.5507 64.3709 26.4445L64.3459 26.407C63.8688 25.6987 63.3043 24.8591 62.9043 23.782C61.773 24.932 61.148 25.8862 60.7959 26.6362C60.2918 27.7112 60.2918 28.4757 60.2918 29.0945V29.0966ZM61.2793 36.7153C60.7626 37.5528 60.2918 39.2695 60.2918 42.6507C60.2918 45.9862 60.7459 50.0361 61.473 53.2257C61.8397 54.8299 62.2563 56.132 62.6793 56.9987C62.7563 57.1591 62.8293 57.2924 62.8959 57.4049C62.9626 57.2924 63.0355 57.1591 63.1126 56.9987C63.5355 56.132 63.9522 54.8278 64.3188 53.2257C65.048 50.0382 65.5001 45.9882 65.5001 42.6507C65.5001 39.2695 65.0293 37.5528 64.5126 36.7153C64.3568 36.4334 64.1212 36.2036 63.8355 36.0549C63.5396 35.926 63.2183 35.8662 62.8959 35.8799C62.4793 35.8799 62.1813 35.9445 61.9563 36.0549C61.6706 36.2036 61.4351 36.4334 61.2793 36.7153ZM73.8334 46.1153C72.7297 45.9302 71.6561 45.5966 70.6418 45.1237C70.7027 43.9421 70.7201 42.7586 70.6938 41.5757C71.6334 42.207 72.6938 42.6716 73.8334 42.9299V36.9111C73.8334 36.0823 74.1627 35.2875 74.7487 34.7014C75.3348 34.1154 76.1296 33.7862 76.9584 33.7862H85.2918C85.2917 32.0376 84.8026 30.3239 83.8797 28.8387C82.9568 27.3535 81.637 26.156 80.0694 25.3815C78.5017 24.607 76.7487 24.2864 75.0083 24.4558C73.268 24.6252 71.6098 25.278 70.2209 26.3403C69.8043 25.1882 69.2105 24.307 68.798 23.6945L68.7147 23.5695C70.5865 22.25 72.7848 21.4701 75.0696 21.3149C77.3545 21.1597 79.638 21.6351 81.6711 22.6894C83.7041 23.7436 85.4084 25.3361 86.598 27.293C87.7876 29.2499 88.4168 31.496 88.4168 33.7862H95.7084C96.5372 33.7862 97.3321 34.1154 97.9181 34.7014C98.5042 35.2875 98.8334 36.0823 98.8334 36.9111V55.6612C98.8334 56.49 98.5042 57.2848 97.9181 57.8709C97.3321 58.4569 96.5372 58.7862 95.7084 58.7862H76.9584C76.1296 58.7862 75.3348 58.4569 74.7487 57.8709C74.1627 57.2848 73.8334 56.49 73.8334 55.6612V46.1132V46.1153ZM76.9584 46.2466V55.6632H95.7084V36.9132H88.0209C87.3718 39.4237 85.9586 41.6704 83.9767 43.3425C81.9949 45.0146 79.5423 46.0294 76.9584 46.2466ZM84.7584 36.9132H76.9584V43.107C78.7088 42.9107 80.3687 42.2258 81.748 41.1304C83.1274 40.0351 84.1707 38.5737 84.7584 36.9132Z" fill="#FA5F05"/>
<path d="M48.0927 96.3361C47.1261 96.3361 46.2361 96.1695 45.4227 95.8361C44.6094 95.4961 43.9027 95.0028 43.3027 94.3561C42.7027 93.7095 42.2361 92.9228 41.9027 91.9961C41.5694 91.0695 41.4027 90.0161 41.4027 88.8361C41.4027 87.2828 41.6861 85.9495 42.2527 84.8361C42.8194 83.7161 43.6061 82.8561 44.6127 82.2561C45.6194 81.6495 46.7794 81.3461 48.0927 81.3461C49.7861 81.3461 51.1361 81.7395 52.1427 82.5261C53.1561 83.3128 53.8461 84.3995 54.2127 85.7861L52.0927 86.1661C51.7994 85.3061 51.3261 84.6195 50.6727 84.1061C50.0194 83.5928 49.1994 83.3328 48.2127 83.3261C47.1927 83.3195 46.3427 83.5461 45.6627 84.0061C44.9894 84.4661 44.4827 85.1128 44.1427 85.9461C43.8027 86.7728 43.6294 87.7361 43.6227 88.8361C43.6161 89.9361 43.7827 90.8995 44.1227 91.7261C44.4627 92.5461 44.9727 93.1861 45.6527 93.6461C46.3394 94.1061 47.1927 94.3395 48.2127 94.3461C49.0327 94.3595 49.7361 94.2095 50.3227 93.8961C50.9161 93.5761 51.3861 93.1095 51.7327 92.4961C52.0794 91.8828 52.3027 91.1295 52.4027 90.2361H49.6027V88.5561H54.6227C54.6361 88.6761 54.6461 88.8361 54.6527 89.0361C54.6594 89.2295 54.6627 89.3528 54.6627 89.4061C54.6627 90.7395 54.4061 91.9295 53.8927 92.9761C53.3794 94.0228 52.6327 94.8461 51.6527 95.4461C50.6727 96.0395 49.4861 96.3361 48.0927 96.3361ZM56.6559 96.0361V85.2361H58.5159V87.8561L58.2559 87.5161C58.3892 87.1695 58.5625 86.8528 58.7759 86.5661C58.9892 86.2728 59.2359 86.0328 59.5159 85.8461C59.7892 85.6461 60.0925 85.4928 60.4259 85.3861C60.7659 85.2728 61.1125 85.2061 61.4659 85.1861C61.8192 85.1595 62.1592 85.1761 62.4859 85.2361V87.1961C62.1325 87.1028 61.7392 87.0761 61.3059 87.1161C60.8792 87.1561 60.4859 87.2928 60.1259 87.5261C59.7859 87.7461 59.5159 88.0128 59.3159 88.3261C59.1225 88.6395 58.9825 88.9895 58.8959 89.3761C58.8092 89.7561 58.7659 90.1595 58.7659 90.5861V96.0361H56.6559ZM67.1277 96.3361C66.3277 96.3361 65.6577 96.1895 65.1177 95.8961C64.5777 95.5961 64.1677 95.2028 63.8877 94.7161C63.6144 94.2228 63.4777 93.6828 63.4777 93.0961C63.4777 92.5495 63.5744 92.0695 63.7677 91.6561C63.9611 91.2428 64.2477 90.8928 64.6277 90.6061C65.0077 90.3128 65.4744 90.0761 66.0277 89.8961C66.5077 89.7561 67.0511 89.6328 67.6577 89.5261C68.2644 89.4195 68.9011 89.3195 69.5677 89.2261C70.2411 89.1328 70.9077 89.0395 71.5677 88.9461L70.8077 89.3661C70.8211 88.5195 70.6411 87.8928 70.2677 87.4861C69.9011 87.0728 69.2677 86.8661 68.3677 86.8661C67.8011 86.8661 67.2811 86.9995 66.8077 87.2661C66.3344 87.5261 66.0044 87.9595 65.8177 88.5661L63.8677 87.9661C64.1344 87.0395 64.6411 86.3028 65.3877 85.7561C66.1411 85.2095 67.1411 84.9361 68.3877 84.9361C69.3544 84.9361 70.1944 85.1028 70.9077 85.4361C71.6277 85.7628 72.1544 86.2828 72.4877 86.9961C72.6611 87.3495 72.7677 87.7228 72.8077 88.1161C72.8477 88.5095 72.8677 88.9328 72.8677 89.3861V96.0361H71.0177V93.5661L71.3777 93.8861C70.9311 94.7128 70.3611 95.3295 69.6677 95.7361C68.9811 96.1361 68.1344 96.3361 67.1277 96.3361ZM67.4977 94.6261C68.0911 94.6261 68.6011 94.5228 69.0277 94.3161C69.4544 94.1028 69.7977 93.8328 70.0577 93.5061C70.3177 93.1795 70.4877 92.8395 70.5677 92.4861C70.6811 92.1661 70.7444 91.8061 70.7577 91.4061C70.7777 91.0061 70.7877 90.6861 70.7877 90.4461L71.4677 90.6961C70.8077 90.7961 70.2077 90.8861 69.6677 90.9661C69.1277 91.0461 68.6377 91.1261 68.1977 91.2061C67.7644 91.2795 67.3777 91.3695 67.0377 91.4761C66.7511 91.5761 66.4944 91.6961 66.2677 91.8361C66.0477 91.9761 65.8711 92.1461 65.7377 92.3461C65.6111 92.5461 65.5477 92.7895 65.5477 93.0761C65.5477 93.3561 65.6177 93.6161 65.7577 93.8561C65.8977 94.0895 66.1111 94.2761 66.3977 94.4161C66.6844 94.5561 67.0511 94.6261 67.4977 94.6261ZM80.5345 96.3361C79.5011 96.3361 78.6345 96.0861 77.9345 95.5861C77.2345 95.0795 76.7045 94.3961 76.3445 93.5361C75.9845 92.6761 75.8045 91.7061 75.8045 90.6261C75.8045 89.5461 75.9811 88.5761 76.3345 87.7161C76.6945 86.8561 77.2211 86.1795 77.9145 85.6861C78.6145 85.1861 79.4745 84.9361 80.4945 84.9361C81.5078 84.9361 82.3811 85.1861 83.1145 85.6861C83.8545 86.1795 84.4245 86.8561 84.8245 87.7161C85.2245 88.5695 85.4245 89.5395 85.4245 90.6261C85.4245 91.7061 85.2245 92.6795 84.8245 93.5461C84.4311 94.4061 83.8678 95.0861 83.1345 95.5861C82.4078 96.0861 81.5411 96.3361 80.5345 96.3361ZM75.4545 100.836V85.2361H77.3145V93.0061H77.5545V100.836H75.4545ZM80.2445 94.4461C80.9111 94.4461 81.4611 94.2761 81.8945 93.9361C82.3345 93.5961 82.6611 93.1395 82.8745 92.5661C83.0945 91.9861 83.2045 91.3395 83.2045 90.6261C83.2045 89.9195 83.0945 89.2795 82.8745 88.7061C82.6611 88.1328 82.3311 87.6761 81.8845 87.3361C81.4378 86.9961 80.8678 86.8261 80.1745 86.8261C79.5211 86.8261 78.9811 86.9861 78.5545 87.3061C78.1345 87.6261 77.8211 88.0728 77.6145 88.6461C77.4145 89.2195 77.3145 89.8795 77.3145 90.6261C77.3145 91.3728 77.4145 92.0328 77.6145 92.6061C77.8145 93.1795 78.1311 93.6295 78.5645 93.9561C78.9978 94.2828 79.5578 94.4461 80.2445 94.4461ZM95.2124 96.0361V90.7261C95.2124 90.3061 95.1758 89.8761 95.1024 89.4361C95.0358 88.9895 94.9024 88.5761 94.7024 88.1961C94.5091 87.8161 94.2324 87.5095 93.8724 87.2761C93.5191 87.0428 93.0558 86.9261 92.4824 86.9261C92.1091 86.9261 91.7558 86.9895 91.4224 87.1161C91.0891 87.2361 90.7958 87.4328 90.5424 87.7061C90.2958 87.9795 90.0991 88.3395 89.9524 88.7861C89.8124 89.2328 89.7424 89.7761 89.7424 90.4161L88.4424 89.9261C88.4424 88.9461 88.6258 88.0828 88.9924 87.3361C89.3591 86.5828 89.8858 85.9961 90.5724 85.5761C91.2591 85.1561 92.0891 84.9461 93.0624 84.9461C93.8091 84.9461 94.4358 85.0661 94.9424 85.3061C95.4491 85.5461 95.8591 85.8628 96.1724 86.2561C96.4924 86.6428 96.7358 87.0661 96.9024 87.5261C97.0691 87.9861 97.1824 88.4361 97.2424 88.8761C97.3024 89.3161 97.3324 89.7028 97.3324 90.0361V96.0361H95.2124ZM87.6224 96.0361V81.6361H89.4924V89.4061H89.7424V96.0361H87.6224ZM100.137 83.4661V81.4361H102.227V83.4661H100.137ZM100.137 96.0361V85.2361H102.227V96.0361H100.137ZM109.85 96.3361C108.743 96.3361 107.803 96.0895 107.03 95.5961C106.257 95.1028 105.663 94.4261 105.25 93.5661C104.843 92.7061 104.637 91.7295 104.63 90.6361C104.637 89.5228 104.85 88.5395 105.27 87.6861C105.69 86.8261 106.29 86.1528 107.07 85.6661C107.85 85.1795 108.787 84.9361 109.88 84.9361C111.06 84.9361 112.067 85.2295 112.9 85.8161C113.74 86.4028 114.293 87.2061 114.56 88.2261L112.48 88.8261C112.273 88.2195 111.933 87.7495 111.46 87.4161C110.993 87.0761 110.457 86.9061 109.85 86.9061C109.163 86.9061 108.6 87.0695 108.16 87.3961C107.72 87.7161 107.393 88.1561 107.18 88.7161C106.967 89.2761 106.857 89.9161 106.85 90.6361C106.857 91.7495 107.11 92.6495 107.61 93.3361C108.117 94.0228 108.863 94.3661 109.85 94.3661C110.523 94.3661 111.067 94.2128 111.48 93.9061C111.9 93.5928 112.22 93.1461 112.44 92.5661L114.56 93.0661C114.207 94.1195 113.623 94.9295 112.81 95.4961C111.997 96.0561 111.01 96.3361 109.85 96.3361ZM46.2848 123.036V108.636H50.7948C50.9281 108.636 51.1748 108.639 51.5348 108.646C51.9014 108.653 52.2514 108.679 52.5848 108.726C53.7114 108.866 54.6581 109.269 55.4248 109.936C56.1981 110.603 56.7814 111.449 57.1748 112.476C57.5681 113.496 57.7648 114.616 57.7648 115.836C57.7648 117.063 57.5681 118.189 57.1748 119.216C56.7814 120.236 56.1981 121.079 55.4248 121.746C54.6581 122.406 53.7114 122.806 52.5848 122.946C52.2514 122.993 51.9014 123.019 51.5348 123.026C51.1748 123.033 50.9281 123.036 50.7948 123.036H46.2848ZM48.4248 121.046H50.7948C51.0214 121.046 51.2914 121.039 51.6048 121.026C51.9181 121.013 52.1948 120.986 52.4348 120.946C53.1681 120.806 53.7614 120.489 54.2148 119.996C54.6748 119.496 55.0114 118.883 55.2248 118.156C55.4381 117.429 55.5448 116.656 55.5448 115.836C55.5448 114.989 55.4348 114.206 55.2148 113.486C54.9948 112.759 54.6548 112.153 54.1948 111.666C53.7414 111.173 53.1548 110.859 52.4348 110.726C52.1948 110.679 51.9148 110.653 51.5948 110.646C51.2814 110.633 51.0148 110.626 50.7948 110.626H48.4248V121.046ZM64.8834 123.336C63.81 123.336 62.8667 123.103 62.0534 122.636C61.2467 122.163 60.6167 121.506 60.1634 120.666C59.7167 119.819 59.4934 118.839 59.4934 117.726C59.4934 116.546 59.7134 115.523 60.1534 114.656C60.6 113.789 61.22 113.119 62.0134 112.646C62.8067 112.173 63.73 111.936 64.7834 111.936C65.8834 111.936 66.82 112.193 67.5934 112.706C68.3667 113.213 68.9434 113.936 69.3234 114.876C69.71 115.816 69.8634 116.933 69.7834 118.226H67.6934V117.466C67.68 116.213 67.44 115.286 66.9734 114.686C66.5134 114.086 65.81 113.786 64.8634 113.786C63.8167 113.786 63.03 114.116 62.5034 114.776C61.9767 115.436 61.7134 116.389 61.7134 117.636C61.7134 118.823 61.9767 119.743 62.5034 120.396C63.03 121.043 63.79 121.366 64.7834 121.366C65.4367 121.366 66 121.219 66.4734 120.926C66.9534 120.626 67.3267 120.199 67.5934 119.646L69.6434 120.296C69.2234 121.263 68.5867 122.013 67.7334 122.546C66.88 123.073 65.93 123.336 64.8834 123.336ZM61.0334 118.226V116.596H68.7434V118.226H61.0334ZM76.157 123.326C74.8436 123.326 73.7736 123.036 72.947 122.456C72.1203 121.876 71.6136 121.059 71.427 120.006L73.567 119.676C73.7003 120.236 74.007 120.679 74.487 121.006C74.9736 121.326 75.577 121.486 76.297 121.486C76.9503 121.486 77.4603 121.353 77.827 121.086C78.2003 120.819 78.387 120.453 78.387 119.986C78.387 119.713 78.3203 119.493 78.187 119.326C78.0603 119.153 77.7903 118.989 77.377 118.836C76.9636 118.683 76.3336 118.493 75.487 118.266C74.5603 118.026 73.8236 117.769 73.277 117.496C72.737 117.216 72.3503 116.893 72.117 116.526C71.8903 116.153 71.777 115.703 71.777 115.176C71.777 114.523 71.9503 113.953 72.297 113.466C72.6436 112.979 73.1303 112.603 73.757 112.336C74.3903 112.069 75.1303 111.936 75.977 111.936C76.8036 111.936 77.5403 112.066 78.187 112.326C78.8336 112.586 79.357 112.956 79.757 113.436C80.157 113.909 80.397 114.466 80.477 115.106L78.337 115.496C78.2636 114.976 78.0203 114.566 77.607 114.266C77.1936 113.966 76.657 113.803 75.997 113.776C75.3636 113.749 74.8503 113.856 74.457 114.096C74.0636 114.329 73.867 114.653 73.867 115.066C73.867 115.306 73.9403 115.509 74.087 115.676C74.2403 115.843 74.5336 116.003 74.967 116.156C75.4003 116.309 76.0403 116.493 76.887 116.706C77.7936 116.939 78.5136 117.199 79.047 117.486C79.5803 117.766 79.9603 118.103 80.187 118.496C80.4203 118.883 80.537 119.353 80.537 119.906C80.537 120.973 80.147 121.809 79.367 122.416C78.5936 123.023 77.5236 123.326 76.157 123.326ZM82.9496 110.466V108.436H85.0396V110.466H82.9496ZM82.9496 123.036V112.236H85.0396V123.036H82.9496ZM92.4926 128.136C91.9126 128.136 91.3492 128.046 90.8026 127.866C90.2626 127.686 89.7692 127.419 89.3226 127.066C88.8759 126.719 88.5059 126.289 88.2126 125.776L90.1426 124.796C90.3759 125.256 90.7092 125.593 91.1426 125.806C91.5759 126.019 92.0326 126.126 92.5126 126.126C93.1059 126.126 93.6126 126.019 94.0326 125.806C94.4526 125.599 94.7692 125.286 94.9826 124.866C95.2026 124.446 95.3092 123.926 95.3026 123.306V120.286H95.5526V112.236H97.4026V123.326C97.4026 123.613 97.3926 123.886 97.3726 124.146C97.3526 124.406 97.3159 124.666 97.2626 124.926C97.1092 125.653 96.8159 126.253 96.3826 126.726C95.9559 127.199 95.4092 127.553 94.7426 127.786C94.0826 128.019 93.3326 128.136 92.4926 128.136ZM92.3326 123.336C91.3259 123.336 90.4559 123.086 89.7226 122.586C88.9959 122.086 88.4326 121.406 88.0326 120.546C87.6392 119.679 87.4426 118.706 87.4426 117.626C87.4426 116.539 87.6426 115.569 88.0426 114.716C88.4426 113.856 89.0092 113.179 89.7426 112.686C90.4826 112.186 91.3592 111.936 92.3726 111.936C93.3926 111.936 94.2492 112.186 94.9426 112.686C95.6426 113.179 96.1692 113.856 96.5226 114.716C96.8826 115.576 97.0626 116.546 97.0626 117.626C97.0626 118.706 96.8826 119.676 96.5226 120.536C96.1626 121.396 95.6326 122.079 94.9326 122.586C94.2326 123.086 93.3659 123.336 92.3326 123.336ZM92.6226 121.446C93.3092 121.446 93.8692 121.283 94.3026 120.956C94.7359 120.629 95.0526 120.179 95.2526 119.606C95.4526 119.033 95.5526 118.373 95.5526 117.626C95.5526 116.879 95.4492 116.219 95.2426 115.646C95.0426 115.073 94.7292 114.626 94.3026 114.306C93.8826 113.986 93.3459 113.826 92.6926 113.826C91.9992 113.826 91.4292 113.996 90.9826 114.336C90.5359 114.676 90.2026 115.133 89.9826 115.706C89.7692 116.279 89.6626 116.919 89.6626 117.626C89.6626 118.339 89.7692 118.986 89.9826 119.566C90.2026 120.139 90.5292 120.596 90.9626 120.936C91.4026 121.276 91.9559 121.446 92.6226 121.446ZM107.791 123.036V117.726C107.791 117.306 107.754 116.876 107.681 116.436C107.614 115.989 107.481 115.576 107.281 115.196C107.087 114.816 106.811 114.509 106.451 114.276C106.097 114.043 105.634 113.926 105.061 113.926C104.687 113.926 104.334 113.989 104.001 114.116C103.667 114.236 103.374 114.433 103.121 114.706C102.874 114.979 102.677 115.339 102.531 115.786C102.391 116.233 102.321 116.776 102.321 117.416L101.021 116.926C101.021 115.946 101.204 115.083 101.571 114.336C101.937 113.583 102.464 112.996 103.151 112.576C103.837 112.156 104.667 111.946 105.641 111.946C106.387 111.946 107.014 112.066 107.521 112.306C108.027 112.546 108.437 112.863 108.751 113.256C109.071 113.643 109.314 114.066 109.481 114.526C109.647 114.986 109.761 115.436 109.821 115.876C109.881 116.316 109.911 116.703 109.911 117.036V123.036H107.791ZM100.201 123.036V112.236H102.071V115.356H102.321V123.036H100.201Z" fill="#AEAEAE"/>
<rect x="11" y="10.0361" width="18" height="18" rx="3" stroke="#5C5C5C" stroke-width="2"/>
<rect x="1" y="1.03613" width="154" height="142" rx="9" stroke="#5C5C5C" stroke-width="2"/>
</svg>
