<svg width="36" height="37" viewBox="0 0 36 37" fill="none" xmlns="http://www.w3.org/2000/svg">
<path d="M8.3625 3.75675C8.55347 3.84857 8.71463 3.99246 8.82741 4.17185C8.9402 4.35125 9.00002 4.55885 9 4.77075C9 6.01575 9.468 6.73275 10.0545 7.60575L10.098 7.66875C10.596 8.40975 11.25 9.38025 11.25 10.7707C11.25 12.1897 10.5345 13.4407 9.444 14.1832C9.7305 14.4232 9.984 14.7187 10.203 15.0727C10.917 16.2277 11.25 17.9932 11.25 20.5282C11.25 23.0962 10.905 26.1802 10.3425 28.6432C10.0635 29.8672 9.717 30.9967 9.3045 31.8442C9.10975 32.2659 8.85178 32.6554 8.5395 32.9992C8.2305 33.3157 7.755 33.6532 7.125 33.6532C6.495 33.6532 6.0195 33.3157 5.712 32.9992C5.39882 32.6561 5.14075 32.2665 4.947 31.8442C4.533 30.9952 4.1865 29.8672 3.9075 28.6417C3.32242 25.9759 3.01826 23.256 3 20.5267C3 17.9917 3.333 16.2277 4.047 15.0727C4.2507 14.7375 4.50697 14.4372 4.806 14.1832C4.24916 13.8052 3.79341 13.2965 3.47858 12.7016C3.16375 12.1067 2.99944 11.4438 3 10.7707C3 10.2187 3 9.26925 3.5745 8.04375C4.137 6.84375 5.2065 5.46525 7.1715 3.89175C7.33711 3.75927 7.5368 3.67631 7.74753 3.65242C7.95825 3.62854 8.17144 3.6647 8.3625 3.75675ZM5.25 10.7692V10.7707C5.25 11.268 5.44755 11.7449 5.79918 12.0966C6.15081 12.4482 6.62772 12.6457 7.125 12.6457C7.62228 12.6457 8.0992 12.4482 8.45083 12.0966C8.80246 11.7449 9 11.268 9 10.7707C9 10.1122 8.7225 9.65625 8.187 8.85975L8.169 8.83275C7.8255 8.32275 7.419 7.71825 7.131 6.94275C6.3165 7.77075 5.8665 8.45775 5.613 8.99775C5.25 9.77175 5.25 10.3222 5.25 10.7677V10.7692ZM5.961 16.2547C5.589 16.8577 5.25 18.0937 5.25 20.5282C5.25 22.9297 5.577 25.8457 6.1005 28.1422C6.3645 29.2972 6.6645 30.2347 6.969 30.8587C7.0245 30.9742 7.077 31.0702 7.125 31.1512C7.173 31.0702 7.2255 30.9742 7.281 30.8587C7.5855 30.2347 7.8855 29.2957 8.1495 28.1422C8.6745 25.8472 9 22.9312 9 20.5282C9 18.0937 8.661 16.8577 8.289 16.2547C8.17681 16.0517 8.00724 15.8863 7.8015 15.7792C7.58848 15.6865 7.35714 15.6434 7.125 15.6532C6.825 15.6532 6.6105 15.6997 6.4485 15.7792C6.24277 15.8863 6.07319 16.0517 5.961 16.2547ZM15 23.0227C14.2053 22.8895 13.4323 22.6493 12.702 22.3087C12.7459 21.458 12.7584 20.6059 12.7395 19.7542C13.416 20.2087 14.1795 20.5432 15 20.7292V16.3957C15 15.799 15.2371 15.2267 15.659 14.8048C16.081 14.3828 16.6533 14.1457 17.25 14.1457H23.25C23.2499 12.8868 22.8978 11.6529 22.2333 10.5836C21.5689 9.51426 20.6186 8.65206 19.4899 8.09441C18.3612 7.53676 17.099 7.30589 15.8459 7.42788C14.5929 7.54987 13.399 8.01986 12.399 8.78475C12.099 7.95525 11.6715 7.32075 11.3745 6.87975L11.3145 6.78975C12.6622 5.83972 14.245 5.27818 15.8901 5.16643C17.5351 5.05468 19.1793 5.39702 20.6431 6.15607C22.1069 6.91513 23.334 8.06172 24.1905 9.4707C25.047 10.8797 25.5 12.4969 25.5 14.1457H30.75C31.3467 14.1457 31.919 14.3828 32.341 14.8048C32.7629 15.2267 33 15.799 33 16.3957V29.8957C33 30.4925 32.7629 31.0648 32.341 31.4867C31.919 31.9087 31.3467 32.1457 30.75 32.1457H17.25C16.6533 32.1457 16.081 31.9087 15.659 31.4867C15.2371 31.0648 15 30.4925 15 29.8957V23.0212V23.0227ZM17.25 23.1172V29.8972H30.75V16.3972H25.215C24.7477 18.2048 23.7301 19.8224 22.3032 21.0263C20.8762 22.2302 19.1104 22.9609 17.25 23.1172ZM22.866 16.3972H17.25V20.8567C18.5103 20.7154 19.7054 20.2223 20.6985 19.4336C21.6917 18.645 22.4428 17.5927 22.866 16.3972Z" fill="#FA5F05"/>
</svg>
