<svg width="31" height="128" viewBox="0 0 31 128" fill="none" xmlns="http://www.w3.org/2000/svg">
<path d="M15.5 60.6005L3.52035 75.3188L0 70.9873L15.5 51.916L31 70.9873L27.4621 75.3188L15.5 60.6005Z" fill="#00D4D0"/>
<path d="M15.5 86.3094L3.52035 101.028L0 96.6963L15.5 77.625L31 96.6963L27.4621 101.028L15.5 86.3094Z" fill="#00D4D0"/>
<path d="M15.5 112.319L3.52035 127.059L0 122.706L15.5 103.656L31 122.706L27.4621 127.059L15.5 112.319Z" fill="#00D4D0"/>
<path d="M15.5 8.88171L3.52035 23.6L0 19.2686L15.5 0.197266L31 19.2686L27.4621 23.6L15.5 8.88171Z" fill="#00D4D0"/>
<path d="M15.5 34.5907L3.52035 49.309L0 44.9775L15.5 25.9062L31 44.9775L27.4621 49.309L15.5 34.5907Z" fill="#00D4D0"/>
</svg>
