<svg width="31" height="128" viewBox="0 0 31 128" fill="none" xmlns="http://www.w3.org/2000/svg">
<path d="M15.5 66.794L3.52035 52.0758L0 56.4072L15.5 75.4785L31 56.4072L27.4621 52.0758L15.5 66.794Z" fill="#00D4D0"/>
<path d="M15.5 41.0851L3.52035 26.3668L0 30.6982L15.5 49.7695L31 30.6982L27.4621 26.3668L15.5 41.0851Z" fill="#00D4D0"/>
<path d="M15.5 15.0759L3.52035 0.336023L0 4.68903L15.5 23.7388L31 4.68903L27.4621 0.336023L15.5 15.0759Z" fill="#00D4D0"/>
<path d="M15.5 118.513L3.52035 103.795L0 108.126L15.5 127.197L31 108.126L27.4621 103.795L15.5 118.513Z" fill="#00D4D0"/>
<path d="M15.5 92.8034L3.52035 78.085L0 82.4165L15.5 101.488L31 82.4165L27.4621 78.085L15.5 92.8034Z" fill="#00D4D0"/>
</svg>
