<svg width="83" height="90" viewBox="0 0 83 90" fill="none" xmlns="http://www.w3.org/2000/svg">
<path fill-rule="evenodd" clip-rule="evenodd" d="M8.43387 35.3063C9.32355 27.4588 9.28728 19.356 9.20355 11.5015C9.18077 9.81028 8.03477 8.37179 6.66208 8.41148C5.27442 8.33193 4.1707 9.67173 4.1795 11.2436C4.26608 18.8558 4.32491 26.7125 3.45986 34.1942C3.26902 35.7894 4.23145 37.3713 5.60633 37.6943C6.98021 38.0175 8.24204 36.9016 8.43387 35.3063Z" fill="#00D4D0"/>
<path fill-rule="evenodd" clip-rule="evenodd" d="M36.4343 55.4999C45.435 41.9844 52.9103 27.0746 62.219 13.765C63.0945 12.5736 62.9246 10.6576 61.8502 9.5735C60.7749 8.48947 59.1877 8.55474 58.3263 9.86548C48.9867 23.1787 41.4817 38.092 32.4501 51.6111C31.6125 52.9191 31.8221 54.8299 32.9232 55.9109C34.0094 56.8727 35.5966 56.8079 36.4343 55.4999Z" fill="#00D4D0"/>
<path fill-rule="evenodd" clip-rule="evenodd" d="M79.2858 73.8367C73.3525 74.8942 67.4192 75.951 61.4849 77.0085C60.1162 77.1688 59.2272 78.7254 59.4893 80.3886C59.7524 82.0516 61.0571 83.1081 62.4268 82.9478C68.37 81.8891 74.3123 80.8313 80.2545 79.7728C81.6092 79.4932 82.4914 77.9379 82.2213 76.2756C81.9652 74.7327 80.6395 73.5572 79.2858 73.8367Z" fill="#00D4D0"/>
</svg>
