<svg width="84" height="89" viewBox="0 0 84 89" fill="none" xmlns="http://www.w3.org/2000/svg">
<path fill-rule="evenodd" clip-rule="evenodd" d="M8.85574 34.9599C9.74543 27.1124 9.70915 19.0096 9.62542 11.1551C9.60265 9.46392 8.45665 8.02543 7.08395 8.06512C5.69629 7.98557 4.59258 9.32537 4.60138 10.8972C4.68796 18.5094 4.74678 26.3662 3.88173 33.8478C3.6909 35.443 4.65332 37.0249 6.0282 37.348C7.40209 37.6711 8.66391 36.5552 8.85574 34.9599Z" fill="#00D4D0"/>
<path fill-rule="evenodd" clip-rule="evenodd" d="M36.8561 55.1534C45.8569 41.6379 53.3321 26.728 62.6409 13.4185C63.5163 12.2271 63.3464 10.3111 62.2721 9.22698C61.1968 8.14295 59.6096 8.20821 58.7482 9.51895C49.4086 22.8321 41.9035 37.7455 32.872 51.2646C32.0344 52.5725 32.244 54.4834 33.3451 55.5644C34.4313 56.5261 36.0185 56.4613 36.8561 55.1534Z" fill="#00D4D0"/>
<path fill-rule="evenodd" clip-rule="evenodd" d="M79.7077 73.4902C73.7744 74.5477 67.841 75.6044 61.9068 76.662C60.5381 76.8222 59.649 78.3789 59.9112 80.0421C60.1743 81.7051 61.479 82.7616 62.8486 82.6013C68.7919 81.5426 74.7342 80.4848 80.6764 79.4263C82.0311 79.1467 82.9132 77.5913 82.6432 75.9291C82.387 74.3862 81.0614 73.2107 79.7077 73.4902Z" fill="#00D4D0"/>
</svg>
