<svg width="1583" height="773" viewBox="0 0 1583 773" fill="none" xmlns="http://www.w3.org/2000/svg">
<path d="M635.298 290.668L643.577 287.484L653.129 273.474V263.922L662.681 258.19L675.418 249.275L688.791 255.006L708.532 242.907L721.905 240.996L737.189 242.907L750.562 237.175L756.293 249.275L750.562 255.006L765.209 263.922H773.488L783.04 273.474L795.776 277.932L802.144 273.474V263.922H816.154L832.712 273.474H849.269H864.552L872.831 290.668L876.652 300.22L883.657 313.593L888.751 326.33V336.519L897.667 344.161L902.761 359.444L912.95 366.449L921.866 377.275L925.687 387.464L932.692 391.922L944.155 394.469L965.806 387.464V403.385L956.254 419.305L947.339 433.315L935.239 444.778L921.866 460.061L910.403 472.798L902.761 486.808L906.582 504.002L912.95 512.28V526.29V539.027L906.582 549.852L894.483 553.037L888.751 561.315L880.473 570.867L883.657 586.788L880.473 593.793L871.557 600.161L867.1 605.892V612.261L865.189 619.902L849.906 638.37L835.896 647.922L823.796 653.654L817.428 647.922L809.149 653.654H798.323L793.866 647.922V638.37L788.771 626.907L778.582 614.808V605.892L774.761 586.788L769.03 570.867L760.751 558.131V546.668L765.209 535.842L769.03 523.106V512.28V504.002L765.209 494.449L760.751 480.439L756.293 475.345L750.562 466.429V456.24V440.957V433.315L741.647 426.31H729.547L724.453 419.305L716.174 414.847L705.348 419.305L691.975 423.126H675.418L658.86 426.31L648.035 423.126L632.114 410.39L627.656 403.385L621.925 394.469L616.831 387.464L613.646 383.006V374.728L609.189 368.36L613.646 360.718V347.345V340.976V333.335V324.419L621.925 313.593L627.656 300.22L635.298 290.668Z" stroke="#00D4D0" stroke-width="4.15104" stroke-dasharray="2.77 2.77"/>
<path d="M953.707 530.749L941.607 544.122L929.508 551.127V567.684L923.776 579.783V592.52L929.508 599.525H941.607L948.612 592.52V579.783L956.891 559.405L960.712 544.122V530.749L956.891 524.38L953.707 530.749Z" stroke="#00D4D0" stroke-width="4.15104" stroke-dasharray="2.77 2.77"/>
<path d="M1403.94 701.415L1408.39 690.589H1418.58L1423.68 694.41L1418.58 701.415L1408.39 705.236L1403.94 701.415Z" stroke="#00D4D0" stroke-width="4.15104" stroke-dasharray="2.77 2.77"/>
<path d="M1342.17 640.281L1326.24 647.286H1305.23L1296.31 652.38L1286.76 657.475L1282.3 652.38V647.286L1286.76 633.276V614.171V594.43L1293.13 582.967L1316.06 569.594H1326.24L1342.17 553.674L1346.62 547.942L1354.9 539.027L1368.27 534.569L1377.19 539.027L1381.65 532.659L1389.93 526.927L1405.21 522.47C1418.97 520.432 1417.73 526.291 1415.4 529.475L1408.39 539.027L1415.4 544.122L1431.96 553.674L1443.42 539.027V529.475L1450.42 519.286L1453.61 529.475L1461.89 539.027V556.221L1467.62 563.863L1477.17 582.967L1486.72 594.43V605.893L1481.63 626.908L1472.08 640.281L1461.89 647.286L1453.61 663.206L1443.42 671.485H1433.87L1429.41 675.943L1423.04 679.764L1415.4 675.943H1405.21L1397.57 671.485V663.206L1394.38 657.475L1388.02 647.286L1381.65 652.38L1374.01 640.281L1365.73 637.097H1358.72L1342.17 640.281Z" stroke="#00D4D0" stroke-width="4.15104" stroke-dasharray="2.77 2.77"/>
<path d="M1509.01 722.43H1495C1495 717.845 1500.1 712.029 1502.64 709.694L1518.56 701.415L1532.57 696.957L1544.67 688.679V696.957L1537.03 701.415L1532.57 709.694H1526.21L1518.56 717.335L1509.01 722.43Z" stroke="#00D4D0" stroke-width="4.15104" stroke-dasharray="2.77 2.77"/>
<path d="M1562.5 693.136H1554.23L1557.41 684.221V677.216L1566.32 673.395L1570.15 660.022L1573.97 669.574L1579.7 677.216L1570.15 684.221L1562.5 693.136Z" stroke="#00D4D0" stroke-width="4.15104" stroke-dasharray="2.77 2.77"/>
<path d="M416.87 767.008L399.676 757.456H387.576L371.019 750.451L362.74 737.078L351.915 721.794L356.372 716.063V707.784L351.915 699.505L342.999 688.043V676.58L339.815 646.013L335.357 618.63V593.157V569.595L322.621 554.948L306.701 544.759L296.511 530.749L286.322 514.192L277.407 493.177L270.402 489.993V475.346L277.407 469.614L270.402 461.336L277.407 447.963L286.322 433.953L290.78 427.585V418.669L286.322 403.385V398.928L290.78 403.385L296.511 398.928L302.88 391.286H309.885L316.253 383.007H322.621L325.805 394.47L322.621 403.385L316.253 394.47L330.263 386.191H339.815L345.546 391.286L355.735 394.47L367.835 391.286L375.477 394.47L390.124 412.301L396.492 418.669H406.681L421.328 423.127L427.696 433.953L432.154 443.505V451.147L439.795 455.604L446.8 461.336H455.716L460.173 464.52L469.089 469.614H482.462L493.288 475.346L505.387 482.351L512.392 485.535V493.177V504.003L502.203 520.56L493.288 530.749V544.759V564.5L482.462 582.968L473.547 586.152L460.173 593.157L450.621 602.072V610.988L446.8 628.182L435.974 646.013L427.696 653.655H420.054H413.049L416.87 660.66V670.849L408.591 676.58H399.676V688.043H387.576V695.048L392.671 699.505L387.576 710.968V716.063V721.794L392.671 729.436V737.078L387.576 744.719L392.671 750.451L387.576 767.008H396.492L404.134 770.192L416.87 767.008Z" stroke="#00D4D0" stroke-width="4.15104" stroke-dasharray="2.77 2.77"/>
<path d="M1482.26 501.454L1496.27 514.828L1491.82 519.285L1482.26 514.828L1471.44 505.275L1465.07 501.454H1458.07L1453.61 508.459L1440.87 505.275L1433.87 501.454H1427.5L1433.87 491.902L1427.5 486.171L1409.67 479.166L1400.12 475.982V469.613L1393.75 458.788H1409.67V463.882L1416.67 475.982L1423.04 469.613L1433.87 463.882L1445.33 469.613L1465.07 475.982L1478.44 486.171L1482.26 501.454Z" stroke="#00D4D0" stroke-width="4.15104" stroke-dasharray="2.77 2.77"/>
<path d="M1302.05 429.494L1289.31 439.047L1276.57 445.415L1279.12 460.062L1285.49 470.251L1302.05 476.619H1314.78V470.251L1324.33 456.878L1328.15 451.783V442.868L1324.33 435.226L1328.15 424.4L1324.33 418.032H1314.78L1302.05 429.494Z" stroke="#00D4D0" stroke-width="4.15104" stroke-dasharray="2.77 2.77"/>
<path d="M1292.49 491.902L1306.5 500.18L1299.5 504.001L1285.49 500.18H1274.66H1261.93L1258.74 491.902H1269.57H1280.39H1292.49Z" stroke="#00D4D0" stroke-width="4.15104" stroke-dasharray="2.77 2.77"/>
<path d="M1259.38 472.161V481.713C1259.38 489.355 1250.46 488.294 1246.01 486.808L1237.09 477.256L1228.81 459.425L1216.08 440.957L1205.25 430.768V421.853L1226.26 430.768L1232.63 440.957L1246.01 450.509V456.877L1259.38 472.161Z" stroke="#00D4D0" stroke-width="4.15104" stroke-dasharray="2.77 2.77"/>
<path d="M1328.16 363.902L1331.34 351.166C1332.61 346.071 1336.54 349.043 1338.34 351.166V363.902L1345.35 369.634L1352.99 381.733L1363.82 394.47L1368.27 406.569V420.579H1359.36L1352.99 413.574L1345.35 397.654L1338.34 381.733L1328.16 363.902Z" stroke="#00D4D0" stroke-width="4.15104" stroke-dasharray="2.77 2.77"/>
<path d="M1234.54 435.863L1228.81 418.669L1217.99 402.111V382.37L1225.63 390.012V398.291L1228.81 405.296L1234.54 412.301L1245.37 418.669L1249.83 429.495V444.778H1245.37L1234.54 435.863Z" stroke="#00D4D0" stroke-width="1.38368"/>
<path d="M1179.78 335.245L1174.05 324.419L1154.3 327.604L1149.85 340.34L1139.66 347.345L1120.55 365.176L1117.37 375.365V395.106C1115.84 407.333 1107.39 405.295 1103.36 402.748L1091.9 379.823L1077.89 347.345V331.424H1069.61H1060.69V321.235H1051.14L1040.31 305.952L1033.31 311.683L1015.48 305.952H999.557L990.005 298.31L967.717 295.763L957.528 283.663L950.523 277.932L946.065 283.663L953.707 292.579L957.528 305.952H967.717L974.722 314.867L986.184 305.952L992.553 311.683L1005.93 321.235V331.424L995.737 347.345L982.363 353.713L967.717 361.992L953.707 369.633L942.881 379.823H929.508L923.139 369.633V358.171L916.134 347.345L904.035 335.245V324.419L884.93 302.131L879.199 286.847L872.194 292.579L864.552 271.564H876.015L879.199 256.28V242.27L868.373 246.091L854.363 242.27H839.08L830.801 225.713V219.981H823.159L815.517 225.713L819.338 234.628L815.517 242.27L806.602 237.812L809.786 231.444L798.96 225.713L794.502 209.156L783.04 202.151L766.482 190.688C759.35 184.065 761.388 191.325 763.298 195.782L771.577 205.335C778.157 210.217 790.299 219.981 786.224 219.981C782.148 219.981 782.403 229.746 783.04 234.628L771.577 219.981L753.746 205.335L744.831 198.966L728.91 205.335H719.995L714.263 215.524L700.89 225.713V237.812L684.97 242.27H670.323L658.86 234.628L663.318 205.335H689.428L695.159 198.966V185.593L684.97 174.131L700.89 170.947L714.263 163.305L732.094 149.295H739.099L744.831 143.563V131.464L751.836 125.733V134.011L760.114 131.464V122.548L753.746 118.091L744.831 122.548L735.278 118.091V101.533L763.298 80.5185L783.04 65.8717L798.96 56.9563H826.343L842.9 65.8717L868.373 69.0558C876.524 75.6787 871.77 79.4571 868.373 80.5185H858.184L842.9 75.424L858.184 88.1603H868.373L876.015 80.5185L884.93 75.424L888.751 69.0558L899.577 75.424L916.134 69.0558H937.786L960.075 65.8717H974.085L966.443 56.9563L969.627 50.5881H983L991.916 56.9563L1005.29 50.5881L1015.48 44.2199H1029.49V37.215L1050.5 32.1204H1063.88L1070.88 27.0259H1082.98L1095.08 32.1204H1112.91L1117.37 37.215L1112.91 44.2199L1136.47 47.404H1141.57H1153.03H1163.86H1184.23L1207.16 56.9563H1220.53H1231.36L1234.54 47.404L1255.56 50.5881L1280.39 56.9563H1302.05H1316.69L1333.25 65.8717H1364.45L1370.19 62.0508H1385.47L1409.03 65.8717L1430.05 72.2399L1443.42 77.3344H1458.07L1466.98 86.8867H1448.51L1438.96 80.5185L1430.05 86.8867L1443.42 93.2549V100.26L1430.05 109.812H1416.67C1403.43 113.378 1406.06 119.364 1409.03 121.912L1419.86 126.369L1423.04 142.927V160.121H1416.67L1400.12 142.927L1389.29 126.369L1394.38 105.354L1389.29 100.26L1381.65 105.354H1373.37H1364.45V116.18H1349.17H1326.24L1316.69 121.912L1310.32 137.195L1320.51 142.927H1330.7L1344.71 148.658H1352.35L1364.45 160.121L1373.37 169.036V176.041L1377.19 188.777L1370.19 184.956L1364.45 176.041L1355.54 163.305H1352.35L1355.54 176.041V188.777L1349.17 204.061H1338.98L1333.25 209.156L1330.7 216.797V222.529L1333.25 228.897L1344.71 237.176L1349.17 246.091L1344.71 253.096H1333.25L1330.7 241.633L1316.69 232.081L1310.32 222.529C1302.17 227.114 1299.29 224.439 1298.86 222.529L1291.22 216.797L1280.39 228.897L1291.22 237.176H1298.86L1310.32 241.633L1295.68 251.185L1310.32 264.559L1316.69 274.111L1320.51 287.484L1316.69 304.678L1310.32 317.414L1295.68 324.419L1280.39 327.604L1272.12 335.245L1263.84 327.604L1255.56 333.335L1251.74 343.524L1263.84 358.171L1272.12 372.181V388.101L1263.84 395.106L1258.11 402.748H1251.74V395.106L1240.91 388.101L1228.17 379.823H1223.72V388.101L1217.35 379.823L1212.25 365.176L1207.16 358.171L1200.79 361.992H1194.42V353.713L1189.97 343.524L1179.78 335.245Z" stroke="#00D4D0" stroke-width="4.15104" stroke-dasharray="2.77 2.77"/>
<path d="M1360 269.017L1356.81 260.101L1358.72 254.37L1364.45 248.638H1372.1L1381.01 242.907L1389.93 232.718L1386.11 224.439L1379.1 211.066V202.788V193.235L1387.38 198.967L1398.84 202.788L1395.66 209.156H1387.38V218.708H1393.11L1398.84 227.623V234.628L1401.39 242.907V253.096H1389.93L1382.92 260.101L1375.28 258.828H1369.55L1364.45 256.28L1361.27 258.828L1366.36 264.559L1364.45 272.201L1360 269.017Z" stroke="#00D4D0" stroke-width="4.15104" stroke-dasharray="2.77 2.77"/>
<path d="M960.075 245.454L944.791 235.265V219.982L928.871 204.061V195.146L944.791 180.499L956.891 190.051L951.796 195.146H944.791V204.061L956.891 209.793H965.169L969.627 216.798L960.075 219.982L965.169 228.897L969.627 238.449L960.075 245.454Z" stroke="#00D4D0" stroke-width="4.15104" stroke-dasharray="2.77 2.77"/>
<path d="M861.368 213.613L846.721 218.708L837.806 205.972L841.627 194.509L854.363 184.32L861.368 194.509H871.557V184.32H883.657V194.509L894.483 201.514L904.672 213.613L894.483 218.708L878.562 213.613H861.368Z" stroke="#00D4D0" stroke-width="4.15104" stroke-dasharray="2.77 2.77"/>
<path d="M698.98 135.284L709.806 151.205L714.263 155.025L709.806 160.757L694.522 165.214H682.423L686.244 155.025V151.205L694.522 142.289L686.244 135.284V129.553V123.185H694.522L698.98 135.284Z" stroke="#00D4D0" stroke-width="4.15104" stroke-dasharray="2.77 2.77"/>
<path d="M663.955 144.201L674.144 139.743C682.295 136.177 680.512 141.229 678.602 144.201L674.144 153.753L663.955 158.848V144.201Z" stroke="#00D4D0" stroke-width="4.15104" stroke-dasharray="2.77 2.77"/>
<path d="M619.378 86.8864L633.388 82.4287H649.308L656.313 86.8864L642.303 95.1651H627.019L619.378 86.8864Z" stroke="#00D4D0" stroke-width="4.15104" stroke-dasharray="2.77 2.77"/>
<path d="M502.84 81.7924L509.209 71.6033C517.869 68.0371 517.912 60.7774 516.85 57.5933L509.209 43.5833L495.199 32.1206H484.373L473.547 27.6629V20.6579H495.199L509.209 13.6529L528.95 9.83203L560.154 13.6529L579.259 6.64795H616.194H642.303L657.587 13.6529L648.035 27.6629L642.303 38.4888L630.204 43.5833L620.652 49.3147L630.204 57.5933L620.652 62.6878L602.821 68.4192L590.084 71.6033L579.259 76.061L560.154 81.7924L542.323 91.3446L528.95 109.812H516.85L502.84 99.6232V81.7924Z" stroke="#00D4D0" stroke-width="4.15104" stroke-dasharray="2.77 2.77"/>
<path d="M434.064 16.8365L421.964 27.6624L437.248 33.3938L449.348 27.6624L464.631 22.5679L492.651 16.8365L511.119 3.46338L478.004 7.28428H455.716V16.8365H449.348H434.064Z" stroke="#00D4D0" stroke-width="4.15104" stroke-dasharray="2.77 2.77"/>
<path d="M404.134 44.8564H391.397L378.661 51.8614L391.397 59.5032H404.134H418.78L430.243 73.5132V77.9709H418.78L411.139 86.8864L418.78 96.4386L434.064 100.896L443.616 91.9809V82.4286H448.711C462.976 85.9948 462.721 80.9427 460.81 77.9709L453.169 67.7819L443.616 56.3192L434.064 51.8614H426.422L418.78 48.0405L404.134 44.8564Z" stroke="#00D4D0" stroke-width="4.15104" stroke-dasharray="4.15 4.15"/>
<path d="M268.492 40.3984L258.939 44.8562L247.477 49.3139L251.298 56.3189L258.939 49.3139H271.676L276.77 56.3189L268.492 66.5079H279.954H287.596H297.785L309.248 63.9607L322.621 62.0502V56.3189V49.3139H318.163H312.432L306.701 44.8562L300.333 49.3139L292.054 44.8562L279.954 40.3984H268.492Z" stroke="#00D4D0" stroke-width="4.15104" stroke-dasharray="2.77 2.77"/>
<path d="M448.711 168.399L460.811 176.041L448.711 179.862H436.611L430.88 176.041L436.611 171.583L448.711 160.757V168.399Z" stroke="#00D4D0" stroke-width="4.15104" stroke-dasharray="4.15 4.15"/>
<path d="M325.805 233.354L348.094 216.16L362.104 211.703L371.019 200.877L386.303 192.598H392.034V200.877H401.586L416.233 192.598L401.586 186.23L406.681 172.857H395.855L401.586 162.668H419.417H433.427L447.437 155.663L456.989 146.747L447.437 143.563L440.432 133.374L436.611 111.722L419.417 121.275L413.049 111.722V104.717L392.034 98.3493L381.208 104.717L374.84 118.091V127.006L362.104 138.469L351.278 143.563V151.842L341.726 159.484L335.357 151.842L339.178 136.558L325.805 133.374L317.527 127.006L304.79 118.091L313.069 104.717L330.263 98.3493L341.726 91.9811L356.372 87.5234L365.288 82.4288L381.208 87.5234L377.387 95.802L362.104 91.9811L371.019 77.3343H386.303L395.855 70.3293V63.3243H386.303L371.019 70.3293L365.288 63.3243L362.104 53.1353L351.278 57.593V63.3243L341.726 70.3293V63.3243H335.357V70.3293H325.805L313.069 73.5134L304.79 70.3293L289.507 73.5134V77.3343L272.313 73.5134L254.482 63.3243H234.104H217.546L191.437 70.3293L173.606 63.3243L129.666 57.593H111.198L86.362 63.3243L78.0834 67.1452C74.0502 67.1452 66.748 69.183 69.8047 77.3343L59.6157 82.4288H46.8793C45.6057 84.3393 44.7141 88.9244 51.337 91.9811L41.7848 98.3493H30.3221L24.5907 108.538L16.3121 111.722L24.5907 118.091L2.30212 136.558L41.7848 121.275L63.4366 111.722H69.8047L90.1829 104.717L108.014 111.722L121.387 121.275L127.755 129.553C125.632 137.195 121.387 154.517 121.387 162.668C132.85 162.668 140.491 174.767 134.123 177.315C129.029 179.352 116.717 193.872 111.198 200.877L96.551 220.618L101.009 253.733L111.198 267.743V279.842L115.656 297.673L121.387 311.046L127.755 318.688V297.673L121.387 285.573V276.021H127.755V290.668L137.944 306.588L150.044 325.693V340.34L178.064 358.171H203.536L213.089 369.633L229.646 376.002H236.014L241.745 386.827L253.208 401.474L269.128 409.753L281.228 401.474H269.128L256.392 386.827V362.628H241.745L236.014 358.171L241.745 337.156C244.08 333.759 245.566 327.986 232.83 332.061L223.914 344.161L209.268 349.255L199.079 340.34L192.074 325.693L199.079 302.131L203.536 290.668L223.914 279.842L241.745 285.573L256.392 276.021L265.944 279.842L277.407 285.573V302.131L281.228 306.588L289.507 302.131V290.668L284.412 276.021L296.512 267.743L306.701 259.464L322.621 253.733V239.723L325.805 233.354Z" stroke="#00D4D0" stroke-width="4.15104" stroke-dasharray="2.77 2.77"/>
<path d="M330.263 348.618H312.432L317.527 338.429H323.895L341.726 342.25L330.263 348.618Z" stroke="#00D4D0" stroke-width="4.15104" stroke-dasharray="2.77 2.77"/>
<path d="M286.322 319.961H265.307L271.039 324.419L281.865 330.15L291.417 337.155L311.158 333.971L304.79 330.15L286.322 319.961Z" stroke="#00D4D0" stroke-width="4.15104" stroke-dasharray="2.77 2.77"/>
<path d="M277.407 186.23H295.238L283.775 195.782L277.407 209.792L280.591 215.523L288.233 209.792L295.238 192.598H306.701V202.787L320.074 195.782V186.23H313.069L306.701 182.409L300.333 175.404H283.775L277.407 186.23Z" stroke="#00D4D0" stroke-width="4.15104" stroke-dasharray="2.77 2.77"/>
<path d="M388.85 35.9408L420.054 41.6722L427.059 35.9408H408.591L397.129 30.2095L388.85 35.9408Z" stroke="#00D4D0" stroke-width="4.15104" stroke-dasharray="2.77 2.77"/>
<path d="M423.238 11.1055L418.78 20.0209H409.865L400.949 16.8368L409.865 11.1055H423.238Z" stroke="#00D4D0" stroke-width="4.15104" stroke-dasharray="2.77 2.77"/>
<path d="M774.761 135.922L780.493 125.096L784.313 117.454L787.498 111.723L780.493 104.081V97.0759L793.866 92.6182L802.144 79.8818L811.06 86.8868L798.96 97.0759L802.144 108.539H823.796L832.075 111.723L823.796 117.454H811.06V125.096H802.144V135.922L793.866 141.653H787.498L774.761 146.111L768.393 141.653H755.02L763.299 135.922H774.761Z" stroke="#00D4D0" stroke-width="4.15104" stroke-dasharray="2.77 2.77"/>
<path d="M1328.16 471.525L1333.89 456.878C1330.83 452.293 1335.16 447.75 1337.71 446.052C1337.71 442.995 1354.26 444.778 1362.54 446.052C1362.54 456.241 1350.66 452.845 1344.71 449.873L1340.25 454.331L1342.17 460.699H1351.72L1344.71 466.43L1348.53 475.346L1344.71 479.803L1340.25 471.525L1337.71 475.346V486.808L1328.16 484.898V471.525Z" stroke="#00D4D0" stroke-width="4.15104" stroke-dasharray="2.77 2.77"/>
</svg>
