<svg width="36" height="37" viewBox="0 0 36 37" fill="none" xmlns="http://www.w3.org/2000/svg">
<path d="M25.875 8.7052H30.375V13.2052H25.875V8.7052ZM25.875 15.4552H30.375V19.9552H25.875V15.4552ZM19.125 8.7052H23.625V13.2052H19.125V8.7052ZM19.125 15.4552H23.625V19.9552H19.125V15.4552Z" fill="#1481AE"/>
<path d="M16.3125 30.0802C17.2445 30.0802 18 29.3247 18 28.3927C18 27.4607 17.2445 26.7052 16.3125 26.7052C15.3805 26.7052 14.625 27.4607 14.625 28.3927C14.625 29.3247 15.3805 30.0802 16.3125 30.0802Z" fill="#1481AE"/>
<path d="M23.625 34.5802H9C8.40345 34.5796 7.8315 34.3424 7.40967 33.9205C6.98784 33.4987 6.7506 32.9268 6.75 32.3302V5.3302C6.7506 4.73365 6.98784 4.1617 7.40967 3.73987C7.8315 3.31804 8.40345 3.0808 9 3.0802H23.625V5.3302H9V32.3302H23.625V23.3302H25.875V32.3302C25.8744 32.9268 25.6372 33.4987 25.2153 33.9205C24.7935 34.3424 24.2216 34.5796 23.625 34.5802Z" fill="#1481AE"/>
</svg>
