<svg width="36" height="37" viewBox="0 0 36 37" fill="none" xmlns="http://www.w3.org/2000/svg">
<g clip-path="url(#clip0_120_286)">
<path d="M30 27.6458C31.65 27.6458 32.985 26.2958 32.985 24.6458L33 9.64575C33 8.8501 32.6839 8.08704 32.1213 7.52443C31.5587 6.96182 30.7956 6.64575 30 6.64575H6C4.335 6.64575 3 7.98075 3 9.64575V24.6458C3 25.4414 3.31607 26.2045 3.87868 26.7671C4.44129 27.3297 5.20435 27.6458 6 27.6458H0V30.6458H36V27.6458H30ZM6 24.6458V9.64575H30V24.6608L6 24.6458ZM13.6455 15.5753C13.6455 14.0348 14.8995 12.7793 16.4415 12.7793C17.982 12.7793 19.2375 14.0348 19.2375 15.5753C19.2363 16.3164 18.9413 17.0269 18.4173 17.551C17.8932 18.0751 17.1827 18.3701 16.4415 18.3713C15.7003 18.3701 14.9898 18.0751 14.4657 17.551C13.9417 17.0269 13.6467 16.3164 13.6455 15.5753ZM24.1935 21.9293L20.4705 18.2063C20.9855 17.4254 21.2603 16.5107 21.261 15.5753C21.2598 14.2971 20.7515 13.0718 19.8476 12.1681C18.9437 11.2645 17.7181 10.7565 16.44 10.7558C15.162 10.7569 13.9367 11.265 13.0329 12.1686C12.1291 13.0721 11.6206 14.2973 11.619 15.5753C11.6206 16.8534 12.129 18.0787 13.0328 18.9825C13.9366 19.8862 15.1619 20.3947 16.44 20.3963C17.3575 20.3945 18.2552 20.1289 19.026 19.6313L22.7595 23.3618L24.192 21.9293H24.1935Z" fill="#C17C74"/>
</g>
<defs>
<clipPath id="clip0_120_286">
<rect width="36" height="36" fill="white" transform="translate(0 0.645752)"/>
</clipPath>
</defs>
</svg>
