<svg width="27" height="27" viewBox="0 0 27 27" fill="none" xmlns="http://www.w3.org/2000/svg">
<path fill-rule="evenodd" clip-rule="evenodd" d="M3.43837 11.9421C4.64299 11.5128 5.91063 10.9424 6.88816 10.1164C8.04916 9.13544 8.52133 7.872 8.83841 6.54208C9.24548 4.83346 9.40814 3.01336 9.90176 1.30198C10.0845 0.66644 10.4363 0.426205 10.5872 0.31959C10.9686 0.0502822 11.3542 -0.0217036 11.717 0.00529644C12.1469 0.0364503 12.7375 0.199131 13.1259 0.919824C13.1812 1.02298 13.2532 1.18014 13.3017 1.39545C13.337 1.55329 13.3598 2.0469 13.3972 2.25044C13.4907 2.75167 13.5689 3.25292 13.6423 3.75692C13.8867 5.43438 14.0272 6.85913 14.7992 8.4002C15.8466 10.4924 16.8962 11.7724 18.3196 12.3394C19.6959 12.8877 21.3415 12.7846 23.444 12.3547C23.6441 12.3062 23.8421 12.2647 24.038 12.2308C24.965 12.0688 25.8512 12.6773 26.0332 13.6008C26.2153 14.5237 25.6262 15.423 24.7075 15.6258C24.5157 15.6681 24.3267 15.7082 24.1398 15.7449C21.2986 16.4483 18.0094 18.9586 16.0979 21.1567C15.5088 21.8345 14.6462 23.7293 13.7662 24.9381C13.1169 25.8297 12.3872 26.4175 11.7745 26.6252C11.3639 26.7651 11.0178 26.7436 10.7319 26.673C10.3165 26.5705 9.97172 26.3455 9.70726 25.9876C9.56326 25.7917 9.42961 25.5293 9.36592 25.1942C9.33546 25.0329 9.33201 24.6231 9.33271 24.4375C9.1534 23.8207 8.93393 23.2184 8.77401 22.596C8.39255 21.111 7.64415 20.1708 6.75523 18.9288C5.92377 17.7664 5.03072 17.0361 3.72157 16.4531C3.55126 16.4116 2.17702 16.0751 1.69171 15.882C0.982792 15.5988 0.644928 15.1246 0.522389 14.8691C0.314005 14.4357 0.292562 14.0571 0.3341 13.7414C0.395716 13.2755 0.604794 12.8767 0.975871 12.5548C1.20572 12.3547 1.5491 12.1601 2.0088 12.0653C2.36395 11.9912 3.30614 11.9483 3.43837 11.9421ZM11.5003 9.52174C11.564 9.66366 11.6319 9.80629 11.7039 9.95029C13.238 13.0144 14.9535 14.7251 17.0388 15.5552L17.1087 15.5822C15.7137 16.6179 14.4509 17.7754 13.4858 18.8852C13.0884 19.3421 12.5623 20.2913 11.9939 21.2647C11.4775 19.5858 10.6329 18.3992 9.57086 16.9142C8.75947 15.7809 7.90932 14.928 6.86463 14.2329C7.67532 13.8169 8.44862 13.3295 9.12223 12.7604C10.2438 11.8126 10.9852 10.7146 11.5003 9.52174Z" fill="#00D4D0"/>
</svg>
