<svg width="36" height="37" viewBox="0 0 36 37" fill="none" xmlns="http://www.w3.org/2000/svg">
<path d="M23.5754 4.3515C23.6189 4.21026 23.6341 4.06185 23.6201 3.91474C23.6062 3.76764 23.5635 3.62471 23.4943 3.49413C23.4251 3.36355 23.3309 3.24787 23.2171 3.15369C23.1032 3.05951 22.9719 2.98868 22.8307 2.94525C22.6894 2.90181 22.541 2.88662 22.3939 2.90054C22.2468 2.91446 22.1039 2.95722 21.9733 3.02638C21.8427 3.09554 21.7271 3.18973 21.6329 3.3036C21.5387 3.41746 21.4679 3.54876 21.4244 3.69L12.4244 32.94C12.3367 33.2252 12.3659 33.5336 12.5056 33.7974C12.6452 34.0611 12.8839 34.2585 13.1692 34.3462C13.4544 34.434 13.7628 34.4048 14.0266 34.2651C14.2903 34.1254 14.4877 33.8867 14.5754 33.6015L23.5754 4.3515ZM10.9214 9.97425C11.0262 10.0788 11.1093 10.2029 11.166 10.3396C11.2228 10.4762 11.2519 10.6228 11.2519 10.7707C11.2519 10.9187 11.2228 11.0652 11.166 11.2019C11.1093 11.3386 11.0262 11.4627 10.9214 11.5672L3.84069 18.6457L10.9214 25.7242C11.1327 25.9355 11.2514 26.222 11.2514 26.5207C11.2514 26.8195 11.1327 27.106 10.9214 27.3172C10.7102 27.5285 10.4237 27.6472 10.1249 27.6472C9.82619 27.6472 9.53968 27.5285 9.32843 27.3172L1.45344 19.4422C1.34867 19.3377 1.26555 19.2136 1.20883 19.0769C1.15212 18.9402 1.12292 18.7937 1.12292 18.6457C1.12292 18.4978 1.15212 18.3512 1.20883 18.2146C1.26555 18.0779 1.34867 17.9537 1.45344 17.8492L9.32843 9.97425C9.43294 9.86948 9.55708 9.78636 9.69376 9.72964C9.83044 9.67293 9.97696 9.64374 10.1249 9.64374C10.2729 9.64374 10.4194 9.67293 10.5561 9.72964C10.6928 9.78636 10.8169 9.86948 10.9214 9.97425ZM25.0784 9.97425C24.9737 10.0788 24.8905 10.2029 24.8338 10.3396C24.7771 10.4762 24.7479 10.6228 24.7479 10.7707C24.7479 10.9187 24.7771 11.0652 24.8338 11.2019C24.8905 11.3386 24.9737 11.4627 25.0784 11.5672L32.1592 18.6457L25.0784 25.7242C24.9738 25.8288 24.8909 25.953 24.8343 26.0897C24.7776 26.2263 24.7485 26.3728 24.7485 26.5207C24.7485 26.6687 24.7776 26.8151 24.8343 26.9518C24.8909 27.0885 24.9738 27.2127 25.0784 27.3172C25.183 27.4218 25.3072 27.5048 25.4439 27.5614C25.5805 27.618 25.727 27.6472 25.8749 27.6472C26.0229 27.6472 26.1693 27.618 26.306 27.5614C26.4427 27.5048 26.5668 27.4218 26.6714 27.3172L34.5464 19.4422C34.6512 19.3377 34.7343 19.2136 34.791 19.0769C34.8477 18.9402 34.8769 18.7937 34.8769 18.6457C34.8769 18.4978 34.8477 18.3512 34.791 18.2146C34.7343 18.0779 34.6512 17.9537 34.5464 17.8492L26.6714 9.97425C26.5669 9.86948 26.4428 9.78636 26.3061 9.72964C26.1694 9.67293 26.0229 9.64374 25.8749 9.64374C25.727 9.64374 25.5804 9.67293 25.4438 9.72964C25.3071 9.78636 25.1829 9.86948 25.0784 9.97425Z" fill="#3A39F7"/>
</svg>
