<svg width="90" height="25" viewBox="0 0 90 25" fill="none" xmlns="http://www.w3.org/2000/svg">
<g clip-path="url(#clip0_250_244)">
<path d="M24.7083 12.2969V12.2909C24.7083 8.73987 23.1623 5.55087 20.7073 3.35787L20.6953 3.34787C20.6649 3.31519 20.6311 3.28601 20.5943 3.26087L20.5923 3.25987C18.4118 1.3454 15.6079 0.29222 12.7063 0.297874C9.67426 0.297874 6.90626 1.42387 4.79626 3.28187L4.80926 3.27087C4.78382 3.29016 4.76037 3.31194 4.73926 3.33587V3.33687C3.47078 4.46006 2.45545 5.83997 1.76051 7.38517C1.06558 8.93037 0.706905 10.6056 0.708256 12.2999C0.708256 15.8499 2.25226 19.0389 4.70526 21.2329L4.71726 21.2429C4.74902 21.2789 4.78456 21.3114 4.82326 21.3399L4.82526 21.3409C7.00509 23.2525 9.80694 24.3041 12.7063 24.2989C15.6191 24.3034 18.433 23.242 20.6173 21.3149L20.6043 21.3259C21.8947 20.2039 22.9291 18.8179 23.6375 17.2616C24.3459 15.7052 24.7117 14.0149 24.7103 12.3049V12.2979L24.7083 12.2969ZM20.2463 20.1019C19.6518 19.621 19.0125 19.1984 18.3373 18.8399L18.2723 18.8079C18.8853 17.0409 19.2543 15.0039 19.2893 12.8849V12.8689H23.5503C23.4066 15.6103 22.2266 18.1947 20.2493 20.0989L20.2463 20.1019ZM13.2803 18.5969C14.5633 18.6659 15.7623 18.9479 16.8683 19.4069L16.7963 19.3809C15.9103 21.4009 14.6633 22.7889 13.2803 23.0939V18.5969ZM13.2803 17.4529V12.8689H18.1483C18.1096 14.7671 17.7805 16.6483 17.1723 18.4469L17.2113 18.3159C15.9697 17.8056 14.6492 17.514 13.3083 17.4539L13.2813 17.4529H13.2803ZM13.2803 11.7249V7.14087C14.6574 7.07802 16.0132 6.77654 17.2873 6.24987L17.2083 6.27887C17.7633 7.89787 18.1043 9.76387 18.1483 11.7039V11.7249H13.2803ZM13.2803 5.99687V1.50187C14.6633 1.80687 15.9103 3.18887 16.7963 5.21487C15.7623 5.64487 14.5633 5.92587 13.3093 5.99587L13.2803 5.99687ZM16.1343 1.99687C17.3126 2.38991 18.4146 2.98253 19.3923 3.74887L19.3693 3.73087C18.9263 4.07887 18.4293 4.40687 17.9053 4.69187L17.8493 4.71987C17.4258 3.7206 16.8437 2.79635 16.1253 1.98287L16.1343 1.99387V1.99687ZM12.1343 1.50487V5.99687C10.9007 5.93395 9.68716 5.65998 8.54626 5.18687L8.61826 5.21287C9.50826 3.19287 10.7533 1.80587 12.1363 1.50087L12.1343 1.50487ZM7.56626 4.71687C7.02418 4.42523 6.50768 4.08837 6.02226 3.70987L6.04626 3.72787C6.99539 2.98403 8.06297 2.40527 9.20426 2.01587L9.28025 1.99287C8.58067 2.78431 8.01063 3.68139 7.59126 4.65087L7.56626 4.71587V4.71687ZM12.1363 7.13987V11.7239H7.26826C7.31226 9.76287 7.65326 7.89687 8.24726 6.14687L8.20826 6.27787C9.44932 6.78734 10.769 7.07863 12.1093 7.13887L12.1363 7.13987ZM12.1363 12.8679V17.4519C10.7591 17.5147 9.40329 17.8162 8.12926 18.3429L8.20826 18.3139C7.65326 16.6959 7.31226 14.8289 7.26826 12.8889V12.8679H12.1363ZM12.1363 18.5959V23.0909C10.7533 22.7859 9.50626 21.4039 8.62026 19.3779C9.65426 18.9479 10.8533 18.6679 12.1073 18.5979L12.1363 18.5969V18.5959ZM9.28625 22.5959C8.10821 22.204 7.0062 21.6127 6.02826 20.8479L6.05226 20.8659C6.49526 20.5179 6.99226 20.1899 7.51626 19.9049L7.57226 19.8769C7.99214 20.8766 8.57431 21.8 9.29525 22.6099L9.28625 22.5999V22.5959ZM17.8503 19.8759C18.4303 20.1909 18.9273 20.5179 19.3943 20.8829L19.3703 20.8649C18.4211 21.6087 17.3535 22.1875 16.2123 22.5769L16.1363 22.5999C16.8358 21.8088 17.4059 20.9121 17.8253 19.9429L17.8503 19.8779V19.8759ZM23.5503 11.7249H19.2893C19.2586 9.65582 18.9015 7.60458 18.2313 5.64687L18.2723 5.78487C18.9787 5.41294 19.6474 4.97356 20.2693 4.47287L20.2453 4.49087C22.2185 6.3879 23.3989 8.96271 23.5483 11.6959L23.5493 11.7239L23.5503 11.7249ZM5.17026 4.49187C5.74626 4.95987 6.39326 5.38887 7.07926 5.75387L7.14426 5.78587C6.53126 7.55287 6.16226 9.58987 6.12726 11.7089V11.7249H1.86526C2.00895 8.98347 3.1889 6.39908 5.16626 4.49487L5.16926 4.49187H5.17026ZM1.86626 12.8689H6.12726C6.15791 14.9379 6.51497 16.9892 7.18526 18.9469L7.14426 18.8089C6.39326 19.2079 5.74726 19.6369 5.14726 20.1209L5.17126 20.1029C3.19799 18.2058 2.01762 15.631 1.86826 12.8979L1.86726 12.8699L1.86626 12.8689Z" fill="#EEEEEE"/>
</g>
<path d="M35.8283 19.2969V7.77687H43.1083V9.12887H37.2523V12.7369H42.1483V14.0889H37.2523V17.9449H43.1083V19.2969H35.8283ZM51.1834 19.2969V14.9689C51.1834 14.5582 51.146 14.1635 51.0714 13.7849C51.002 13.4062 50.8767 13.0675 50.6954 12.7689C50.5194 12.4649 50.2794 12.2249 49.9754 12.0489C49.6767 11.8729 49.298 11.7849 48.8394 11.7849C48.482 11.7849 48.1567 11.8462 47.8634 11.9689C47.5754 12.0862 47.3274 12.2675 47.1194 12.5129C46.9114 12.7582 46.7487 13.0675 46.6314 13.4409C46.5194 13.8089 46.4634 14.2435 46.4634 14.7449L45.5274 14.4569C45.5274 13.6195 45.6767 12.9022 45.9754 12.3049C46.2794 11.7022 46.7034 11.2409 47.2474 10.9209C47.7967 10.5955 48.442 10.4329 49.1834 10.4329C49.7434 10.4329 50.2207 10.5209 50.6154 10.6969C51.01 10.8729 51.338 11.1075 51.5994 11.4009C51.8607 11.6889 52.066 12.0142 52.2154 12.3769C52.3647 12.7342 52.4687 13.0995 52.5274 13.4729C52.5914 13.8409 52.6234 14.1902 52.6234 14.5209V19.2969H51.1834ZM45.0234 19.2969V10.6569H46.3034V12.9689H46.4634V19.2969H45.0234ZM58.1993 23.3769C57.7459 23.3769 57.3033 23.3075 56.8713 23.1689C56.4393 23.0302 56.0419 22.8195 55.6793 22.5369C55.3219 22.2595 55.0233 21.9075 54.7833 21.4809L56.0873 20.7929C56.3006 21.2142 56.6019 21.5209 56.9913 21.7129C57.3859 21.9049 57.7913 22.0009 58.2073 22.0009C58.7566 22.0009 59.2126 21.8995 59.5753 21.6969C59.9379 21.4995 60.2046 21.2035 60.3753 20.8089C60.5513 20.4142 60.6366 19.9235 60.6313 19.3369V16.9769H60.7993V10.6569H62.0633V19.3529C62.0633 19.5875 62.0553 19.8142 62.0393 20.0329C62.0286 20.2515 62.0019 20.4675 61.9593 20.6809C61.8473 21.2942 61.6259 21.7982 61.2953 22.1929C60.9646 22.5929 60.5379 22.8889 60.0153 23.0809C59.4926 23.2782 58.8873 23.3769 58.1993 23.3769ZM58.0953 19.5369C57.2899 19.5369 56.5993 19.3369 56.0233 18.9369C55.4473 18.5315 55.0019 17.9849 54.6873 17.2969C54.3779 16.6089 54.2233 15.8329 54.2233 14.9689C54.2233 14.1049 54.3779 13.3289 54.6873 12.6409C55.0019 11.9529 55.4473 11.4115 56.0233 11.0169C56.5993 10.6169 57.2873 10.4169 58.0873 10.4169C58.9033 10.4169 59.5886 10.6142 60.1433 11.0089C60.6979 11.4035 61.1166 11.9449 61.3993 12.6329C61.6873 13.3209 61.8313 14.0995 61.8313 14.9689C61.8313 15.8275 61.6873 16.6035 61.3993 17.2969C61.1166 17.9849 60.6979 18.5315 60.1433 18.9369C59.5886 19.3369 58.9059 19.5369 58.0953 19.5369ZM58.2713 18.2329C58.8526 18.2329 59.3299 18.0942 59.7033 17.8169C60.0766 17.5342 60.3513 17.1475 60.5273 16.6569C60.7086 16.1609 60.7993 15.5982 60.7993 14.9689C60.7993 14.3289 60.7086 13.7662 60.5273 13.2809C60.3513 12.7902 60.0793 12.4089 59.7113 12.1369C59.3433 11.8595 58.8766 11.7209 58.3113 11.7209C57.7246 11.7209 57.2393 11.8649 56.8553 12.1529C56.4766 12.4409 56.1939 12.8302 56.0073 13.3209C55.8259 13.8115 55.7353 14.3609 55.7353 14.9689C55.7353 15.5822 55.8286 16.1369 56.0153 16.6329C56.2019 17.1235 56.4819 17.5129 56.8553 17.8009C57.2339 18.0889 57.7059 18.2329 58.2713 18.2329ZM64.457 19.2969V7.53687H65.881V19.2969H64.457ZM68.4414 9.12887V7.65687H69.8654V9.12887H68.4414ZM68.4414 19.2969V10.6569H69.8654V19.2969H68.4414ZM75.5298 19.5289C74.5004 19.5289 73.6551 19.3049 72.9938 18.8569C72.3378 18.4035 71.9351 17.7715 71.7858 16.9609L73.2418 16.7289C73.3591 17.1982 73.6284 17.5715 74.0498 17.8489C74.4711 18.1209 74.9938 18.2569 75.6178 18.2569C76.2098 18.2569 76.6738 18.1342 77.0098 17.8889C77.3458 17.6435 77.5138 17.3102 77.5138 16.8889C77.5138 16.6435 77.4578 16.4462 77.3458 16.2969C77.2338 16.1422 77.0018 15.9982 76.6498 15.8649C76.3031 15.7315 75.7778 15.5715 75.0738 15.3849C74.3111 15.1822 73.7111 14.9715 73.2738 14.7529C72.8364 14.5342 72.5244 14.2809 72.3378 13.9929C72.1511 13.7049 72.0578 13.3555 72.0578 12.9449C72.0578 12.4382 72.1964 11.9955 72.4738 11.6169C72.7511 11.2329 73.1378 10.9369 73.6338 10.7289C74.1351 10.5209 74.7164 10.4169 75.3778 10.4169C76.0338 10.4169 76.6204 10.5209 77.1378 10.7289C77.6551 10.9369 78.0711 11.2329 78.3858 11.6169C78.7058 11.9955 78.8951 12.4382 78.9538 12.9449L77.4978 13.2089C77.4284 12.7449 77.2044 12.3795 76.8258 12.1129C76.4524 11.8462 75.9698 11.7049 75.3778 11.6889C74.8178 11.6675 74.3618 11.7662 74.0098 11.9849C73.6631 12.2035 73.4898 12.4995 73.4898 12.8729C73.4898 13.0809 73.5538 13.2595 73.6818 13.4089C73.8151 13.5582 74.0578 13.6995 74.4098 13.8329C74.7671 13.9662 75.2844 14.1182 75.9618 14.2889C76.7244 14.4809 77.3244 14.6915 77.7618 14.9209C78.2044 15.1449 78.5191 15.4115 78.7058 15.7209C78.8924 16.0249 78.9858 16.4009 78.9858 16.8489C78.9858 17.6809 78.6791 18.3369 78.0658 18.8169C77.4524 19.2915 76.6071 19.5289 75.5298 19.5289ZM86.9021 19.2969V14.9689C86.9021 14.5582 86.8648 14.1635 86.7901 13.7849C86.7208 13.4062 86.5955 13.0675 86.4141 12.7689C86.2381 12.4649 85.9981 12.2249 85.6941 12.0489C85.3955 11.8729 85.0168 11.7849 84.5581 11.7849C84.2008 11.7849 83.8755 11.8462 83.5821 11.9689C83.2941 12.0862 83.0461 12.2675 82.8381 12.5129C82.6301 12.7582 82.4675 13.0675 82.3501 13.4409C82.2381 13.8089 82.1821 14.2435 82.1821 14.7449L81.2461 14.4569C81.2461 13.6195 81.3955 12.9022 81.6941 12.3049C81.9981 11.7022 82.4221 11.2409 82.9661 10.9209C83.5155 10.5955 84.1608 10.4329 84.9021 10.4329C85.4621 10.4329 85.9395 10.5209 86.3341 10.6969C86.7288 10.8729 87.0568 11.1075 87.3181 11.4009C87.5795 11.6889 87.7848 12.0142 87.9341 12.3769C88.0835 12.7342 88.1875 13.0995 88.2461 13.4729C88.3101 13.8409 88.3421 14.1902 88.3421 14.5209V19.2969H86.9021ZM80.7421 19.2969V7.77687H82.0221V14.1369H82.1821V19.2969H80.7421Z" fill="#EEEEEE"/>
<defs>
<clipPath id="clip0_250_244">
<rect width="24" height="24" fill="white" transform="translate(0.708252 0.296875)"/>
</clipPath>
</defs>
</svg>
