<svg width="37" height="37" viewBox="0 0 37 37" fill="none" xmlns="http://www.w3.org/2000/svg">
<path d="M24.8333 6.23438H12.7708C9.43978 6.23438 6.7395 8.93466 6.7395 12.2656V24.3281C6.7395 27.6591 9.43978 30.3594 12.7708 30.3594H24.8333C28.1642 30.3594 30.8645 27.6591 30.8645 24.3281V12.2656C30.8645 8.93466 28.1642 6.23438 24.8333 6.23438Z" stroke="#EEEEEE" stroke-width="2.4125" stroke-linecap="round" stroke-linejoin="round"/>
<path d="M18.802 22.8203C21.3002 22.8203 23.3254 20.7951 23.3254 18.2969C23.3254 15.7986 21.3002 13.7734 18.802 13.7734C16.3038 13.7734 14.2786 15.7986 14.2786 18.2969C14.2786 20.7951 16.3038 22.8203 18.802 22.8203Z" stroke="#EEEEEE" stroke-width="2.4125" stroke-linecap="round" stroke-linejoin="round"/>
<path d="M25.5872 11.5117V11.5127" stroke="#EEEEEE" stroke-width="2.4125" stroke-linecap="round" stroke-linejoin="round"/>
</svg>
