<svg width="37" height="37" viewBox="0 0 37 37" fill="none" xmlns="http://www.w3.org/2000/svg">
<path fill-rule="evenodd" clip-rule="evenodd" d="M14.2268 13.7504H19.7978V16.5254C20.6003 14.9294 22.6583 13.4954 25.7498 13.4954C31.6763 13.4954 33.0833 16.6724 33.0833 22.5014V33.2969H27.0833V23.8289C27.0833 20.5094 26.2808 18.6374 24.2378 18.6374C21.4043 18.6374 20.2268 20.6549 20.2268 23.8274V33.2969H14.2268V13.7504ZM3.93825 33.0419H9.93825V13.4954H3.93825V33.0419ZM10.7978 7.12188C10.798 7.62479 10.6982 8.12273 10.5043 8.58676C10.3104 9.05079 10.0262 9.47165 9.66825 9.82488C8.94285 10.5458 7.96097 10.9494 6.93825 10.9469C5.91734 10.9462 4.93772 10.5437 4.21125 9.82638C3.85457 9.47195 3.57133 9.05061 3.37777 8.58652C3.1842 8.12244 3.08412 7.62471 3.08325 7.12188C3.08325 6.10638 3.48825 5.13438 4.21275 4.41738C4.93858 3.69911 5.91861 3.29643 6.93975 3.29688C7.96275 3.29688 8.94375 3.70038 9.66825 4.41738C10.3913 5.13438 10.7978 6.10638 10.7978 7.12188Z" fill="#EEEEEE"/>
</svg>
