<svg width="38" height="38" viewBox="0 0 38 38" fill="none" xmlns="http://www.w3.org/2000/svg">
<path d="M34.5988 10.0539C33.4277 10.5475 32.1887 10.8726 30.9208 11.0191C32.2533 10.2623 33.2553 9.06008 33.739 7.63781C32.4792 8.3523 31.1033 8.85361 29.6702 9.12029C29.0667 8.50681 28.3409 8.01878 27.5369 7.68585C26.7329 7.35291 25.8675 7.18204 24.9933 7.1836C21.4539 7.1836 18.5896 9.92146 18.5896 13.2965C18.5871 13.7659 18.6425 14.234 18.7548 14.6906C16.2168 14.5752 13.7316 13.9472 11.4581 12.8468C9.18468 11.7464 7.17307 10.1979 5.552 8.30019C4.98329 9.23013 4.68252 10.2912 4.68114 11.3724C4.68114 13.492 5.82126 15.3656 7.54282 16.4633C6.52285 16.4398 5.52377 16.178 4.63041 15.7V15.7757C4.63041 18.7406 6.84171 21.2072 9.76843 21.7687C9.21807 21.911 8.65093 21.9831 8.08134 21.9831C7.67718 21.9838 7.27393 21.9458 6.87748 21.8696C7.69111 24.2983 10.0592 26.0647 12.8643 26.1152C10.5849 27.819 7.78647 28.7399 4.90877 28.7331C4.39797 28.7324 3.88765 28.7029 3.38037 28.6448C6.30786 30.458 9.71084 31.4171 13.1842 31.4079C24.9796 31.4079 31.4236 22.0904 31.4236 14.0093C31.4236 13.7444 31.4164 13.4794 31.4034 13.2208C32.6542 12.3578 33.7362 11.2854 34.5988 10.0539Z" fill="#EEEEEE"/>
</svg>
